<svg width="39" height="132" viewBox="0 0 39 132" fill="none" xmlns="http://www.w3.org/2000/svg">
<path d="M38.2346 69.1481C38.1339 68.897 38.0264 68.6503 37.9168 68.4037C37.9168 68.4014 37.9168 68.3992 37.9123 68.3969C37.5004 67.4754 37.0259 66.5853 36.4841 65.7332C36.0812 65.0987 35.6761 64.4731 35.347 63.8027C35.3716 63.296 35.3963 62.7287 35.4186 62.204C35.4321 61.8991 35.4433 61.6098 35.45 61.352C35.45 61.334 35.45 61.3184 35.45 61.3004C35.45 61.2488 35.4522 61.1995 35.4545 61.1524C35.4545 61.1143 35.4545 61.0784 35.4567 61.0426C35.4567 61.0224 35.4567 61.0022 35.4567 60.9843C35.4567 60.9327 35.4567 60.8811 35.4589 60.8318C36.1551 53.1927 34.0308 45.5827 34.0308 45.5827C34.0308 45.5827 33.9927 40.161 33.901 38.2036C33.6906 33.7506 33.3235 30.9456 33.3235 30.9456C32.2982 27.3828 30.1292 26.7572 28.4861 26.4545C28.475 26.4523 28.4615 26.45 28.4503 26.4478C28.4548 26.4254 28.4571 26.4052 28.4593 26.3828C28.4503 26.3805 28.4414 26.3761 28.4324 26.3738L27.5706 26.2482C27.5706 26.2482 27.5415 26.255 27.5012 26.2729C27.4788 26.2684 27.4542 26.2639 27.4318 26.2595C27.405 26.2527 27.3804 26.2482 27.3535 26.2415C25.9209 25.894 24.2689 25.302 23.3131 24.5845C23.4049 24.441 23.4787 24.2841 23.5347 24.1227C23.6198 23.8715 23.6153 23.598 23.566 23.3267C23.5705 23.3267 23.5727 23.3267 23.5772 23.3289C23.5839 23.367 23.5884 23.4051 23.5929 23.4433C23.5929 23.4567 23.613 23.45 23.613 23.4388C23.613 23.4029 23.613 23.3693 23.613 23.3356C23.725 23.3648 23.8391 23.3738 23.9578 23.3491C23.9981 23.3401 24.0361 23.3312 24.0719 23.3177C24.0809 23.3155 24.0876 23.311 24.0965 23.3087C24.1234 23.2998 24.1525 23.2886 24.1794 23.2773C24.1906 23.2729 24.1973 23.2684 24.2085 23.2639C24.2331 23.2527 24.2577 23.2392 24.2801 23.2258C24.2913 23.219 24.3025 23.2123 24.3114 23.2034C24.3316 23.1899 24.3517 23.1787 24.3719 23.163C24.3853 23.154 24.3965 23.1428 24.4077 23.1338C24.4234 23.1204 24.4413 23.1092 24.4547 23.0935C24.4681 23.08 24.4816 23.0666 24.495 23.0531C24.5084 23.0419 24.5196 23.0285 24.533 23.015C24.5465 22.9993 24.5599 22.9836 24.5756 22.9657C24.5845 22.9545 24.5935 22.9433 24.6024 22.932C24.6181 22.9119 24.6315 22.8917 24.645 22.8715C24.6517 22.8625 24.6584 22.8513 24.6651 22.8424C24.6785 22.8199 24.6942 22.7953 24.7076 22.7706C24.7121 22.7639 24.7166 22.7549 24.7211 22.7482C24.7345 22.7213 24.7479 22.6944 24.7614 22.6675C24.7636 22.6607 24.7681 22.6563 24.7703 22.6495C24.7837 22.6204 24.7972 22.589 24.8084 22.5598C24.8084 22.5554 24.8106 22.5531 24.8128 22.5486C24.824 22.5172 24.8352 22.4836 24.8442 22.45C24.8442 22.45 24.8442 22.4455 24.8464 22.4432C24.8554 22.4096 24.8643 22.376 24.8733 22.3424C24.8733 22.3424 24.8733 22.3379 24.8733 22.3356C24.8822 22.302 24.8867 22.2684 24.8934 22.2347C24.8934 22.2325 24.8934 22.2302 24.8934 22.228C24.9001 22.1944 24.9024 22.163 24.9069 22.1293C24.9069 22.1249 24.9069 22.1226 24.9069 22.1181C24.9091 22.0867 24.9113 22.0553 24.9136 22.0262C24.9136 22.0217 24.9136 22.0172 24.9136 22.0127C24.9136 22.0038 24.9136 21.9948 24.9136 21.9858C24.9136 21.9432 24.8666 21.9455 24.8442 21.9701C24.7009 22.1181 24.6785 22.3513 24.4569 22.4276C23.9891 22.589 23.5593 22.1226 23.5705 21.7101C23.5839 21.1876 23.8928 20.7661 24.2622 20.4141C24.3361 20.3446 24.4099 20.2773 24.486 20.2145C24.495 20.2055 24.5039 20.1988 24.5129 20.1921C24.589 20.1293 24.6651 20.0665 24.7412 20.0082C25.171 19.6674 25.6097 19.358 25.9925 18.9566C26.3529 18.58 26.5074 18.0777 26.6797 17.6001C26.8521 17.1203 26.9013 16.6068 26.8342 16.1113C26.9125 15.9633 26.973 15.8019 27.0289 15.6561C27.0782 15.5261 27.1341 15.4005 27.1923 15.2772C27.3154 15.0687 27.4341 14.8579 27.5482 14.6449C27.7139 14.3893 27.8974 14.1427 28.0989 13.9027C28.3496 13.5956 28.4212 13.2637 28.3742 12.9162C29.2607 10.7682 29.6815 8.47664 29.2741 6.18513C29.1555 5.52368 28.9674 4.86896 28.6988 4.23442C28.4817 3.71872 28.1168 3.23216 27.743 2.80839C27.6266 2.6761 27.5057 2.55053 27.3804 2.42721C27.3513 2.40031 27.3244 2.37116 27.2953 2.34425C27.1856 2.23887 27.0737 2.13573 26.9573 2.03483C26.9394 2.01914 26.9215 2.00344 26.9036 1.98775C26.3193 1.49446 25.6612 1.07966 24.9427 0.783689C24.3316 0.530321 23.6511 0.308344 22.9952 0.189508C21.1395 -0.144578 19.2436 -0.0504062 17.4662 0.579649C16.2799 1.00118 14.9256 1.62899 13.9452 2.40255C11.5478 4.29496 10.4912 7.09994 10.7598 9.94528C10.7598 9.94528 10.7598 9.94976 10.7598 9.95201C10.7867 10.2345 10.827 10.5148 10.8785 10.7973C10.8829 10.8287 10.8897 10.8579 10.8964 10.8892C10.9232 11.0238 10.9523 11.1583 10.9837 11.2928C11.1941 12.1673 11.4403 13.0619 11.7604 13.9095C12.3402 15.4386 13.3117 16.7952 14.2652 18.1315C14.7241 18.7773 15.2703 19.3737 15.7068 20.0351C15.8702 20.284 16.0694 20.5508 16.2306 20.8289C16.3045 21.0239 16.356 21.2257 16.3985 21.4343C16.4657 21.5688 16.5216 21.7078 16.5709 21.8536C16.5082 22.3827 16.4477 22.9433 16.3918 23.4859C16.2709 24.663 13.7661 25.6899 11.6754 26.2124C11.6351 26.2213 11.597 26.2325 11.5567 26.2438C11.5052 26.2572 11.4493 26.2684 11.3933 26.2796C11.3508 26.2595 11.3172 26.2505 11.3172 26.2505L10.4554 26.3761C10.4554 26.3761 10.4375 26.3828 10.4285 26.385C10.4308 26.4074 10.4353 26.4321 10.4375 26.4545C8.79223 26.7572 6.61645 27.3783 5.58676 30.9479C5.58676 30.9479 5.21966 33.7529 5.00924 38.2059C4.91523 40.1633 4.87941 45.5849 4.87941 45.5849C4.87941 45.5849 4.87941 45.5871 4.87941 45.5916C4.87941 45.5916 4.87941 45.5916 4.87941 45.5939C4.79883 45.8854 2.77303 53.3451 3.45352 60.8318C3.46471 61.4843 3.38189 62.7354 3.31026 63.796C2.97896 64.4686 2.5738 65.0987 2.16864 65.7332C1.48144 66.8162 0.89944 67.9597 0.418173 69.1503C-0.0317567 70.2625 0.142841 71.4732 0.122695 72.6437C0.113741 73.2603 0.107027 73.8746 0.133888 74.4845C0.176419 74.6661 0.241333 74.9083 0.427125 74.9935C0.718124 75.1302 0.9554 74.85 1.05613 74.6414C1.13671 74.4778 1.19492 74.3074 1.23968 74.1325C1.41205 74.5226 1.64932 74.7805 1.96942 74.6101C2.46412 74.3477 2.41264 73.5742 2.32086 72.9934C2.39697 73.1706 2.48426 73.341 2.59171 73.5069C2.82451 73.8656 3.01478 73.7378 3.20505 73.4441C3.3304 73.2513 3.33935 72.7625 3.31473 72.5472C3.20505 71.5652 3.10879 70.6952 3.28115 69.7154C3.25429 70.2311 3.29459 70.7423 3.42889 71.2445C3.48933 71.7109 3.61692 72.1616 3.84525 72.5809C3.86315 72.6123 3.88106 72.6414 3.89673 72.6661C3.90121 72.6728 3.90568 72.6773 3.90792 72.684C3.92583 72.7087 3.94374 72.7289 3.96164 72.7468C3.97955 72.7647 3.9997 72.7804 4.0176 72.7916C4.16087 72.8746 4.30637 72.7625 4.45634 72.5697C4.59737 72.388 4.64661 71.9015 4.63989 71.6862C4.61079 70.6683 4.5817 69.7737 4.85927 68.7804C4.8906 68.6638 4.92866 68.5472 4.96895 68.4261C5.14355 69.2288 4.72496 70.4799 5.60019 70.7961C5.87328 70.897 6.32545 70.9373 6.50901 70.6593C6.5963 70.5248 6.56273 70.3947 6.53811 70.2512C6.36575 69.2109 6.35231 68.0898 6.71494 67.092C6.93207 66.4866 6.8 65.6256 6.64779 64.9305C6.64779 64.9238 6.64779 64.9193 6.65003 64.9148C6.64331 64.8924 6.63436 64.8677 6.62764 64.8453C6.62764 64.8363 6.62316 64.8274 6.62316 64.8184C6.61421 64.7893 6.60302 64.7601 6.59407 64.731C6.54482 64.5695 6.4911 64.4103 6.43066 64.2534C6.37022 64.1121 6.30978 63.9686 6.24934 63.8274C6.29411 63.1502 6.42394 62.2937 6.60302 61.3946C6.72613 60.7757 6.87164 60.1367 7.02833 59.5156C7.0328 59.5022 7.03504 59.4887 7.03952 59.473C7.07309 59.3407 7.10667 59.2107 7.14025 59.0829C7.1492 59.0515 7.15592 59.0201 7.16487 58.9887C7.19397 58.8766 7.22531 58.7667 7.25441 58.6591C7.26336 58.6232 7.27456 58.5874 7.28351 58.5515C7.28351 58.547 7.28351 58.5425 7.28575 58.5403C7.31485 58.4394 7.34171 58.3385 7.37081 58.2398C7.37977 58.2084 7.38872 58.177 7.39767 58.1456C7.40215 58.13 7.40663 58.1143 7.4111 58.0986C7.44692 57.973 7.48497 57.8497 7.52079 57.7308C8.27739 55.2532 9.3317 51.4706 9.29812 45.9302C9.29812 45.2374 9.72567 43.8068 10.0077 42.1656C10.0077 42.1543 10.0122 42.1454 10.0144 42.1364C10.039 41.9884 10.0637 41.8404 10.0861 41.6902L10.4039 43.4369C10.4039 43.4369 10.4554 43.4436 10.5494 43.4526C10.5584 43.5019 10.5651 43.5512 10.574 43.6006C10.7263 44.5243 10.8941 45.623 11.0396 46.7374C11.4045 49.5513 11.2232 50.8406 10.4397 53.2397C10.4218 53.2958 10.4017 53.3563 10.3793 53.4169C10.3748 53.4303 10.3703 53.4438 10.3636 53.4595C10.3457 53.5133 10.3233 53.5693 10.3032 53.6254C10.292 53.6545 10.2808 53.6837 10.2696 53.7128C10.2607 53.7375 10.2517 53.7599 10.2427 53.7846C9.98085 54.4797 9.60479 55.4012 9.22425 56.6344C9.20411 56.6748 9.17053 56.7443 9.12576 56.8385C9.12576 56.8385 9.12576 56.8407 9.12576 56.8429C8.87057 57.3923 8.29977 58.7264 8.29977 59.6928C8.29977 59.6928 8.25052 60.13 8.27738 60.8228C7.69986 64.5807 7.54093 69.897 8.74074 77.4397C11.1784 90.857 12.1544 92.783 11.9104 94.2629C11.7515 95.227 10.9277 98.5454 11.221 104.093C11.221 104.099 11.221 104.106 11.221 104.113C11.2299 104.297 11.2433 104.487 11.2545 104.676C11.259 104.752 11.2635 104.826 11.268 104.902C11.2792 105.066 11.2926 105.236 11.306 105.404C11.315 105.51 11.3217 105.615 11.3329 105.723C11.3463 105.88 11.362 106.037 11.3776 106.196C11.3888 106.319 11.4023 106.445 11.4135 106.57C11.4291 106.723 11.447 106.877 11.4649 107.03C11.4806 107.169 11.4963 107.308 11.5142 107.449C11.5321 107.599 11.5522 107.75 11.5724 107.902C11.5925 108.052 11.6127 108.205 11.6328 108.357C11.653 108.507 11.6754 108.655 11.6977 108.808C11.7224 108.969 11.747 109.133 11.7716 109.297C11.794 109.445 11.8186 109.595 11.8432 109.745C11.8701 109.918 11.9014 110.09 11.9328 110.265C11.9596 110.413 11.9843 110.561 12.0111 110.712C12.0447 110.895 12.0805 111.084 12.1163 111.27C12.1432 111.416 12.1723 111.559 12.2014 111.707C12.2417 111.907 12.2842 112.111 12.3267 112.312C12.3558 112.452 12.3849 112.591 12.414 112.732C12.4655 112.96 12.517 113.196 12.573 113.429C12.5998 113.548 12.6245 113.665 12.6536 113.783C12.7364 114.14 12.8237 114.501 12.9177 114.866C12.949 114.996 12.9804 115.126 13.0072 115.256C13.0162 115.297 13.0251 115.337 13.0341 115.378C13.0542 115.469 13.0722 115.564 13.0901 115.656C13.099 115.7 13.108 115.745 13.1147 115.79C13.1326 115.887 13.1483 115.983 13.1662 116.079C13.1729 116.115 13.1774 116.151 13.1841 116.189C13.2065 116.322 13.2266 116.454 13.2445 116.588C13.2445 116.602 13.249 116.618 13.249 116.631C13.2647 116.75 13.2803 116.869 13.2938 116.987C13.2982 117.028 13.3027 117.07 13.3072 117.111C13.3184 117.205 13.3273 117.301 13.3363 117.396C13.3408 117.438 13.3452 117.481 13.3497 117.523C13.3587 117.626 13.3676 117.73 13.3766 117.831C13.3788 117.86 13.3811 117.891 13.3833 117.92C13.3923 118.055 13.4012 118.187 13.4102 118.319C13.4102 118.342 13.4102 118.362 13.4146 118.384C13.4214 118.494 13.4258 118.604 13.4303 118.714C13.4303 118.754 13.4325 118.792 13.4348 118.833C13.4393 118.927 13.4415 119.021 13.4415 119.115C13.4415 119.153 13.4415 119.194 13.4437 119.232C13.4437 119.34 13.446 119.447 13.4482 119.553C13.4482 119.573 13.4482 119.595 13.4482 119.615C13.4482 119.743 13.4482 119.871 13.446 119.999C13.446 120.026 13.446 120.05 13.446 120.077C13.446 120.176 13.4415 120.275 13.4393 120.373C13.4393 120.411 13.437 120.449 13.4348 120.488C13.4325 120.577 13.4281 120.667 13.4236 120.754C13.4236 120.79 13.4214 120.824 13.4191 120.86C13.4146 120.967 13.4079 121.075 13.4012 121.183C13.4012 121.194 13.4012 121.205 13.4012 121.216C13.3945 121.335 13.3855 121.452 13.3766 121.568C13.3766 121.597 13.3721 121.629 13.3699 121.658C13.3632 121.743 13.3564 121.826 13.3497 121.909C13.3475 121.945 13.343 121.983 13.3408 122.019C13.3341 122.097 13.3251 122.176 13.3184 122.252C13.3161 122.284 13.3117 122.317 13.3094 122.349C13.2982 122.449 13.287 122.55 13.2759 122.649C13.2759 122.653 13.2759 122.658 13.2759 122.665C13.2647 122.766 13.2512 122.866 13.2378 122.965C13.2333 122.999 13.2288 123.03 13.2244 123.064C13.2154 123.129 13.2065 123.194 13.1975 123.257C13.193 123.292 13.1863 123.328 13.1818 123.366C13.1729 123.427 13.1639 123.485 13.155 123.544C13.1505 123.575 13.1438 123.609 13.1393 123.642C13.1259 123.725 13.1124 123.808 13.0968 123.887C13.0923 123.914 13.0878 123.938 13.0833 123.963C13.0722 124.021 13.061 124.077 13.052 124.133C13.0453 124.169 13.0386 124.203 13.0319 124.236C13.0229 124.279 13.014 124.322 13.005 124.362C12.9983 124.396 12.9893 124.432 12.9826 124.465C12.9826 124.476 12.9781 124.49 12.9737 124.501C12.9692 124.506 12.9669 124.51 12.9625 124.512C12.8035 124.683 12.6401 124.846 12.47 125.003C12.4543 125.017 12.4387 125.032 12.4252 125.046C12.3469 125.115 12.2685 125.185 12.188 125.252C12.1521 125.284 12.1141 125.313 12.0783 125.344C11.9932 125.414 11.9082 125.483 11.8209 125.55C11.7291 125.622 11.6351 125.692 11.5388 125.761C11.4896 125.797 11.4358 125.833 11.3866 125.869C11.3015 125.927 11.2165 125.985 11.1292 126.044C11.0866 126.071 11.0441 126.1 11.0016 126.127C10.8718 126.21 10.7397 126.293 10.6076 126.371C10.5919 126.384 10.5763 126.4 10.5606 126.414C10.5427 126.427 10.5226 126.443 10.5046 126.458C10.5046 126.458 10.5046 126.458 10.5091 126.458C9.92041 126.943 9.28245 127.364 8.58629 127.647C7.8476 127.947 6.96341 127.929 6.28068 128.364C5.87552 128.624 5.42336 128.862 4.95999 129.041C4.74286 129.089 4.53693 129.154 4.33547 129.243C4.31756 129.248 4.30189 129.252 4.28398 129.257C4.03104 129.32 3.35502 129.75 3.22072 129.999C3.05283 130.311 3.16028 130.797 3.37293 131.145C3.42889 131.234 3.48933 131.315 3.55648 131.38C3.5632 131.387 3.56991 131.391 3.57663 131.398C3.60797 131.427 3.63931 131.456 3.67288 131.476C3.71989 131.508 3.7669 131.533 3.81391 131.555C3.82734 131.562 3.84077 131.566 3.8542 131.573C3.89673 131.591 3.93926 131.607 3.98179 131.618C3.98851 131.618 3.99522 131.622 4.00417 131.624C4.05118 131.638 4.10043 131.647 4.15191 131.654C4.16982 131.656 4.18549 131.658 4.2034 131.66C4.24145 131.665 4.27727 131.669 4.31532 131.672C4.33099 131.672 4.34442 131.672 4.36009 131.674C4.40709 131.674 4.4541 131.674 4.50111 131.674C4.52573 131.674 4.55259 131.674 4.57722 131.674C4.60184 131.674 4.62646 131.674 4.65109 131.672C4.78987 131.665 4.9309 131.654 5.06968 131.645C5.24428 131.636 5.41664 131.631 5.58228 131.654C6.98132 131.851 8.82133 131.459 10.4039 131.239C10.4711 131.23 10.5382 131.221 10.6031 131.212C10.6546 131.205 10.7061 131.198 10.7576 131.192C10.818 131.183 10.8785 131.176 10.9367 131.169C11.0038 131.163 11.071 131.156 11.1359 131.149C11.1784 131.145 11.221 131.14 11.2635 131.138C11.3709 131.129 11.4784 131.12 11.5836 131.113C12.1566 131.082 12.7207 131.317 13.2557 131.492C13.7974 131.667 14.3951 131.692 14.9614 131.712C16.0784 131.755 17.3431 131.472 18.1266 130.615C18.346 130.378 18.5317 130.08 18.6593 129.781C19.0466 128.855 18.6907 128.18 18.6258 127.192C18.6235 127.147 18.619 127.1 18.6168 127.053C18.6123 127.001 18.6101 126.95 18.6056 126.898C18.6056 126.889 18.6056 126.882 18.6056 126.876C18.5519 126.138 18.4624 125.225 18.3974 124.568C18.4176 124.254 18.4243 123.909 18.3974 123.559C18.3862 123.391 18.3661 123.223 18.3392 123.059C18.3392 123.053 18.337 123.044 18.3348 123.037C18.3325 123.023 18.328 123.008 18.3258 122.994C18.3146 122.938 18.3034 122.884 18.2922 122.831C18.29 122.817 18.2878 122.804 18.2833 122.79C18.281 122.781 18.2788 122.772 18.2766 122.763C18.2587 122.692 18.2385 122.62 18.2161 122.548C17.8848 121.463 17.7595 119.79 18.1893 115.351C18.6079 111.017 19.06 102.519 18.7108 96.81C18.5026 93.6799 18.6772 89.8951 18.7108 86.765C18.7243 85.5206 18.8339 82.1887 18.9571 78.6258C18.7511 75.5338 18.7936 73.0899 18.9391 71.4217C19.0108 70.6055 19.107 69.9754 19.21 69.5449C19.21 69.5382 19.21 69.536 19.2145 69.5293C19.2257 69.4822 19.2369 69.4373 19.2503 69.3947C19.2525 69.3835 19.257 69.3745 19.2592 69.3633C19.2704 69.3275 19.2794 69.2938 19.2906 69.2624C19.2951 69.2467 19.2995 69.2333 19.304 69.2198C19.3107 69.2019 19.3152 69.184 19.3219 69.1683C19.4383 69.1481 19.595 69.1436 19.6555 69.1346C19.6689 69.1346 19.6846 69.1346 19.698 69.1346C19.698 69.1391 19.7025 69.1436 19.7025 69.1503C19.7069 69.1615 19.7092 69.1772 19.7136 69.1884C19.7226 69.2153 19.7293 69.2422 19.7383 69.2736C19.7427 69.2871 19.745 69.3006 19.7495 69.3162C19.7584 69.3499 19.7674 69.3857 19.7741 69.4239C19.7763 69.4373 19.7808 69.4508 19.783 69.4642C19.792 69.5068 19.801 69.5517 19.8099 69.5965C19.8099 69.6077 19.8144 69.6212 19.8166 69.6324C19.8256 69.684 19.8368 69.74 19.8457 69.7983C19.8457 69.8073 19.848 69.814 19.8502 69.823C19.8614 69.8903 19.8726 69.9597 19.8815 70.0337C19.9487 70.4956 20.0069 71.0876 20.0494 71.8051C20.1457 73.4553 20.1546 75.7625 19.9644 78.6303C20.0875 82.1931 20.1972 85.525 20.2106 86.7695C20.2464 89.8996 20.421 93.6844 20.2106 96.8145C19.8636 102.523 20.3158 111.021 20.7321 115.355C21.1507 119.692 21.106 121.871 20.759 123.006C20.7568 123.014 20.7545 123.026 20.7523 123.039C20.7523 123.044 20.7523 123.05 20.7523 123.055C20.7523 123.066 20.7501 123.077 20.7478 123.088C20.7478 123.095 20.7478 123.102 20.7478 123.111C20.7478 123.124 20.7456 123.14 20.7433 123.156C20.7433 123.162 20.7433 123.169 20.7433 123.178C20.7433 123.203 20.7411 123.227 20.7389 123.257C20.7389 123.259 20.7389 123.263 20.7389 123.266C20.7389 123.292 20.7389 123.322 20.7366 123.353V123.366C20.7321 123.47 20.7321 123.588 20.7299 123.716C20.7165 123.869 20.4926 125.949 20.412 127.201C20.3471 128.192 19.989 128.864 20.3785 129.79C20.5038 130.091 20.6919 130.387 20.9112 130.624C21.6947 131.481 22.9594 131.761 24.0764 131.721C24.6427 131.701 25.2404 131.676 25.7821 131.501C26.3171 131.326 26.8812 131.091 27.4542 131.122C29.2159 131.223 31.6849 131.911 33.4533 131.663C34.0689 131.577 34.7964 131.86 35.3604 131.483C35.7365 131.232 36.0476 130.445 35.8104 130.006C35.6783 129.757 35 129.324 34.7471 129.263C34.7292 129.259 34.7135 129.254 34.6979 129.25C34.4964 129.158 34.2905 129.093 34.0733 129.046C33.61 128.867 33.16 128.627 32.7549 128.369C32.6788 128.319 32.5982 128.277 32.5176 128.239C32.5109 128.237 32.5064 128.232 32.5019 128.23C32.4214 128.192 32.3408 128.16 32.2557 128.131C32.249 128.131 32.2445 128.127 32.24 128.124C31.6603 127.923 31.0134 127.88 30.4515 127.649C29.9501 127.445 29.48 127.169 29.0346 126.851C29.0413 126.853 29.048 126.858 29.0525 126.86C28.8555 126.719 28.6608 126.573 28.475 126.418C28.4593 126.405 28.4436 126.389 28.428 126.376C28.2869 126.29 28.1481 126.205 28.0116 126.115C27.9601 126.082 27.9086 126.046 27.8571 126.012C27.7721 125.956 27.6893 125.9 27.6064 125.842C27.546 125.799 27.4856 125.754 27.4251 125.71C27.3535 125.658 27.2841 125.604 27.2125 125.55C27.1498 125.501 27.0871 125.452 27.0244 125.4C26.9595 125.349 26.8946 125.295 26.8319 125.241C26.7693 125.187 26.7066 125.133 26.6439 125.077C26.5812 125.021 26.523 124.965 26.4626 124.909C26.4447 124.891 26.4268 124.873 26.4066 124.855C26.3529 124.804 26.3014 124.752 26.2499 124.701C26.1985 124.649 26.1492 124.595 26.0977 124.541C26.0619 124.506 26.0283 124.467 25.9947 124.432C25.9656 124.4 25.9366 124.367 25.9075 124.333C25.8134 124.225 25.7217 124.118 25.6344 124.006L25.6523 123.999C25.2583 122.884 24.9449 119.171 26.0015 114.871C29.0659 102.761 27.255 95.7427 27.011 94.2651C26.767 92.7852 27.743 90.8592 30.1807 77.4419C31.3939 69.8095 31.2171 64.4574 30.6239 60.6928C30.606 59.9686 30.5276 59.5089 30.5276 59.5089C30.5276 58.2645 29.8427 56.8654 29.8427 56.8654L29.6569 56.4909C29.6569 56.4909 29.6569 56.4999 29.6546 56.5044C29.1801 54.9886 28.7145 53.9528 28.4817 53.2397C27.6982 50.8406 27.5169 49.5513 27.8818 46.7374C28.0429 45.5042 28.2354 44.4033 28.4011 43.5557C28.41 43.5176 28.4168 43.4817 28.4235 43.4436C28.4682 43.4391 28.4929 43.4346 28.4929 43.4346L28.7861 41.827C29.0301 43.8427 29.621 45.1051 29.621 45.928C29.5852 51.4662 30.6395 55.251 31.3984 57.7286C31.4297 57.8317 31.4611 57.9371 31.4924 58.0425C31.4969 58.0582 31.5014 58.0717 31.5058 58.0873C32.005 59.7959 32.5019 61.9888 32.6452 63.5067C32.587 63.5628 32.5266 63.6188 32.4728 63.6771C32.39 63.87 32.3072 64.0606 32.2288 64.2511C32.1706 64.4036 32.1192 64.5606 32.0699 64.7153C32.0587 64.7489 32.0453 64.7825 32.0363 64.8162C32.0363 64.8251 32.0319 64.8363 32.0296 64.8476C32.0229 64.87 32.0162 64.8924 32.0095 64.9126C32.0095 64.9171 32.0095 64.9238 32.0095 64.9283C31.8595 65.6234 31.7252 66.4866 31.9446 67.0898C32.305 68.0875 32.2938 69.2086 32.1192 70.249C32.0945 70.3925 32.061 70.5225 32.1505 70.6571C32.334 70.9351 32.7862 70.8925 33.0593 70.7938C33.9346 70.4777 33.516 69.2266 33.6906 68.4239C33.7286 68.5427 33.7667 68.6615 33.798 68.7781C34.0733 69.7714 34.0487 70.666 34.0174 71.684C34.0107 71.8992 34.0599 72.3858 34.2009 72.5674C34.371 72.7894 34.5345 72.9038 34.6979 72.7446C34.7158 72.7266 34.7337 72.7064 34.7516 72.6795C34.7561 72.675 34.7605 72.6683 34.7628 72.6638C34.7807 72.6369 34.7986 72.61 34.8165 72.5786C35.0448 72.1593 35.1724 71.7087 35.2329 71.2423C35.3672 70.74 35.4075 70.2288 35.3784 69.7109C35.5507 70.6907 35.4545 71.5607 35.3448 72.545C35.3202 72.7602 35.3291 73.249 35.4545 73.4419C35.6447 73.7334 35.835 73.8612 36.0678 73.5047C36.1752 73.341 36.2625 73.1683 36.3386 72.9934C36.2469 73.5742 36.1954 74.3455 36.6901 74.6101C37.0124 74.7805 37.2497 74.5226 37.4221 74.1325C37.4668 74.3074 37.525 74.4778 37.6034 74.6414C37.7063 74.85 37.9436 75.128 38.2346 74.9935C38.4182 74.9083 38.4853 74.6661 38.5279 74.4845C38.5547 73.8724 38.5502 73.2603 38.539 72.6437C38.5189 71.471 38.6935 70.2625 38.2458 69.1503L38.2346 69.1481Z" fill="#FAE2FF"/>
</svg>
