<svg width="21" height="22" viewBox="0 0 21 22" fill="none" xmlns="http://www.w3.org/2000/svg">
<path d="M10.3889 21.9999C16.1265 21.9999 20.7778 17.3487 20.7778 11.6111C20.7778 5.87343 16.1265 1.22217 10.3889 1.22217C4.65126 1.22217 0 5.87343 0 11.6111C0 17.3487 4.65126 21.9999 10.3889 21.9999Z" fill="#F4900C"/>
<path d="M10.3889 20.7778C16.1265 20.7778 20.7778 16.1265 20.7778 10.3889C20.7778 4.65126 16.1265 0 10.3889 0C4.65126 0 0 4.65126 0 10.3889C0 16.1265 4.65126 20.7778 10.3889 20.7778Z" fill="#FFCC4D"/>
<path d="M10.3886 19.5554C15.1137 19.5554 18.9441 15.725 18.9441 10.9999C18.9441 6.27479 15.1137 2.44434 10.3886 2.44434C5.66346 2.44434 1.83301 6.27479 1.83301 10.9999C1.83301 15.725 5.66346 19.5554 10.3886 19.5554Z" fill="#FFE8B6"/>
<path d="M10.3886 18.9444C15.1137 18.9444 18.9441 15.1139 18.9441 10.3888C18.9441 5.6637 15.1137 1.83325 10.3886 1.83325C5.66346 1.83325 1.83301 5.6637 1.83301 10.3888C1.83301 15.1139 5.66346 18.9444 10.3886 18.9444Z" fill="#FFAC33"/>
<path d="M5.2207 6.63413C5.2207 6.30107 5.54765 6.16785 5.54765 6.16785L10.362 3.90674L15.2221 6.16785C15.2221 6.16785 15.557 6.2424 15.557 6.63657V7.02829H5.2207V6.63413Z" fill="#FFE8B6"/>
<path d="M15.2348 7.84419C15.2348 7.4873 14.9262 7.19824 14.5461 7.19824H6.19036C5.80964 7.19824 5.54442 7.4873 5.54442 7.84419C5.54442 8.0868 5.66908 8.2958 5.8677 8.40641V8.81341H7.15958V8.49013H8.45147V8.81341H9.74336V8.49013H11.0353V8.81341H12.3271V8.49013H13.619V8.81341H14.9115V8.38991C15.1053 8.27502 15.2348 8.07396 15.2348 7.84419ZM16.2034 14.6666C16.2034 14.7952 16.1524 14.9184 16.0615 15.0093C15.9706 15.1002 15.8473 15.1512 15.7188 15.1512H5.05981C4.93128 15.1512 4.80802 15.1002 4.71713 15.0093C4.62625 14.9184 4.5752 14.7952 4.5752 14.6666C4.5752 14.5381 4.62625 14.4148 4.71713 14.324C4.80802 14.2331 4.93128 14.182 5.05981 14.182H15.7194C15.9865 14.182 16.2034 14.399 16.2034 14.6666Z" fill="#F4900C"/>
<path d="M15.5569 7.4556C15.5569 7.54134 15.5229 7.62357 15.4622 7.68419C15.4016 7.74482 15.3194 7.77888 15.2336 7.77888H5.54326C5.46096 7.77382 5.38368 7.73755 5.3272 7.67748C5.27071 7.61741 5.23926 7.53806 5.23926 7.4556C5.23926 7.37314 5.27071 7.29379 5.3272 7.23372C5.38368 7.17365 5.46096 7.13739 5.54326 7.13232L15.2336 7.13416C15.276 7.134 15.318 7.14219 15.3571 7.15826C15.3963 7.17434 15.4319 7.19798 15.462 7.22784C15.492 7.25769 15.5158 7.29318 15.5321 7.33226C15.5484 7.37134 15.5568 7.41326 15.5569 7.4556ZM6.83576 7.83082H13.9424V8.5556H6.83576V7.83082Z" fill="#F4900C"/>
<path d="M7.15871 12.7289C7.15871 13.0858 6.9656 13.3749 6.72788 13.3749H6.29704C6.05932 13.3749 5.86621 13.0858 5.86621 12.7289V7.83149C5.86621 7.4746 6.05932 7.18555 6.29704 7.18555H6.72788C6.9656 7.18555 7.15871 7.4746 7.15871 7.83149V12.7289ZM14.9113 12.7289C14.9113 13.0858 14.7188 13.3749 14.4804 13.3749H14.0496C13.8119 13.3749 13.6188 13.0858 13.6188 12.7289V7.83149C13.6188 7.4746 13.8113 7.18555 14.0496 7.18555H14.4804C14.7182 7.18555 14.9113 7.4746 14.9113 7.83149V12.7289ZM9.7431 12.7289C9.7431 13.0858 9.54999 13.3749 9.31227 13.3749H8.88143C8.64371 13.3749 8.4506 13.0858 8.4506 12.7289V7.83149C8.4506 7.4746 8.64371 7.18555 8.88143 7.18555H9.31227C9.54999 7.18555 9.7431 7.4746 9.7431 7.83149V12.7289ZM12.3269 12.7289C12.3269 13.0858 12.1338 13.3749 11.896 13.3749H11.4658C11.2281 13.3749 11.035 13.0858 11.035 12.7289V7.83149C11.035 7.4746 11.2281 7.18555 11.4658 7.18555H11.896C12.1338 7.18555 12.3269 7.4746 12.3269 7.83149V12.7289Z" fill="#FFD983"/>
<path d="M15.2343 13.0515C15.2343 13.4084 14.9453 13.6974 14.5884 13.6974H6.18989C6.01857 13.6974 5.85428 13.6294 5.73314 13.5082C5.612 13.3871 5.54395 13.2228 5.54395 13.0515C5.54395 12.8801 5.612 12.7158 5.73314 12.5947C5.85428 12.4736 6.01857 12.4055 6.18989 12.4055H14.5884C14.9447 12.4055 15.2343 12.6946 15.2343 13.0515Z" fill="#FFCC4D"/>
<path d="M15.8804 13.6975C15.8804 14.0543 15.5913 14.3434 15.2344 14.3434H5.54341C5.37209 14.3434 5.20779 14.2753 5.08665 14.1542C4.96552 14.0331 4.89746 13.8688 4.89746 13.6975C4.89746 13.5261 4.96552 13.3618 5.08665 13.2407C5.20779 13.1196 5.37209 13.0515 5.54341 13.0515H15.2338C15.5907 13.0515 15.8804 13.3406 15.8804 13.6975Z" fill="#FFD983"/>
<path d="M16.2034 14.1821C16.2034 14.3106 16.1524 14.4339 16.0615 14.5248C15.9706 14.6157 15.8473 14.6667 15.7188 14.6667H5.05981C4.99617 14.6667 4.93315 14.6542 4.87435 14.6298C4.81556 14.6055 4.76214 14.5698 4.71713 14.5248C4.67213 14.4798 4.63644 14.4264 4.61208 14.3676C4.58773 14.3088 4.5752 14.2458 4.5752 14.1821C4.5752 14.1185 4.58773 14.0555 4.61208 13.9967C4.63644 13.9379 4.67213 13.8845 4.71713 13.8394C4.76214 13.7944 4.81556 13.7588 4.87435 13.7344C4.93315 13.71 4.99617 13.6975 5.05981 13.6975H15.7194C15.9865 13.6975 16.2034 13.9145 16.2034 14.1821Z" fill="#FFD983"/>
<path d="M15.2343 7.50801C15.2343 7.15112 14.9257 6.86206 14.5456 6.86206H6.18989C5.80917 6.86206 5.54395 7.15112 5.54395 7.50801C5.54395 7.75062 5.66861 7.95962 5.86722 8.07023V8.47723H7.15911V8.15395H8.451V8.47723H9.74289V8.15395H11.0348V8.47723H12.3267V8.15395H13.6186V8.47723H14.9111V8.05373C15.1048 7.93884 15.2343 7.73778 15.2343 7.50801Z" fill="#FFCC4D"/>
<path d="M5.2207 7.00522C5.2207 6.67217 5.54765 6.53894 5.54765 6.53894L10.362 4.27783L15.2221 6.53894C15.2221 6.53894 15.557 6.6135 15.557 7.00767V7.1855H5.2207V7.00522Z" fill="#FFD983"/>
<path d="M10.3888 5.09839C10.3888 5.09839 7.05522 6.66956 6.72277 6.81133C6.38972 6.9525 6.50094 7.18472 6.72338 7.18472H14.0384C14.3818 7.18472 14.3005 6.92255 14.028 6.78078C13.7554 6.63961 10.3888 5.09839 10.3888 5.09839Z" fill="#FFAC33"/>
<path d="M15.5569 7.18485C15.5569 7.27059 15.5229 7.35282 15.4622 7.41344C15.4016 7.47407 15.3194 7.50813 15.2336 7.50813H5.54326C5.46096 7.50307 5.38368 7.4668 5.3272 7.40673C5.27071 7.34666 5.23926 7.26731 5.23926 7.18485C5.23926 7.10239 5.27071 7.02304 5.3272 6.96297C5.38368 6.9029 5.46096 6.86664 5.54326 6.86157L15.2336 6.86341C15.276 6.86324 15.318 6.87144 15.3571 6.88751C15.3963 6.90359 15.4319 6.92723 15.462 6.95708C15.492 6.98694 15.5158 7.02243 15.5321 7.06151C15.5484 7.10059 15.5568 7.14251 15.5569 7.18485Z" fill="#FFD983"/>
</svg>
