<svg width="36" height="132" viewBox="0 0 36 132" fill="none" xmlns="http://www.w3.org/2000/svg">
<path d="M33.9663 70.0271C33.9708 70.0159 33.9775 70.0002 33.9842 69.9868C33.9909 69.9733 33.9954 69.9599 34.0021 69.9464C34.0267 69.8859 34.0603 69.8074 34.0961 69.7155C34.1006 69.7043 34.1051 69.693 34.1096 69.6818C34.1499 69.5787 34.1969 69.4621 34.2483 69.3298C34.2483 69.3253 34.2528 69.3209 34.2528 69.3164C34.2864 69.2267 34.3222 69.1325 34.358 69.0339C34.358 69.0294 34.3625 69.0249 34.3625 69.0182C34.4185 68.8634 34.4767 68.6953 34.5371 68.5204C34.5393 68.5114 34.5416 68.5047 34.5461 68.4957C34.752 67.8724 34.9602 67.1482 35.0699 66.4576C35.0922 66.3186 35.1034 66.1683 35.1057 66.0114C34.9714 64.6481 33.9932 62.9844 33.1739 62.1638C33.2075 61.4194 33.2366 60.6817 33.2433 60.2131C33.2612 60.0023 33.2791 59.7938 33.2925 59.5853C33.297 59.5225 33.3015 59.4619 33.3037 59.4014C33.3149 59.2422 33.3239 59.0808 33.3306 58.9216C33.3328 58.8655 33.3373 58.8117 33.3395 58.7556C33.3485 58.5494 33.3574 58.3453 33.3619 58.1413C33.3619 58.0964 33.3619 58.0516 33.3642 58.0068C33.3686 57.8408 33.3709 57.6772 33.3731 57.5112C33.3731 57.4462 33.3731 57.3834 33.3731 57.3184C33.3731 57.1525 33.3731 56.9843 33.3731 56.8206C33.3731 56.7803 33.3731 56.7399 33.3731 56.6996C33.3731 56.4978 33.3664 56.2982 33.3619 56.0987C33.3619 56.0426 33.3597 55.9888 33.3574 55.9327C33.353 55.7803 33.3485 55.6278 33.3418 55.4776C33.3418 55.417 33.3373 55.3587 33.3351 55.3004C33.3261 55.1031 33.3172 54.9081 33.306 54.7152C33.306 54.704 33.306 54.6928 33.306 54.6816C33.2948 54.4955 33.2836 54.3116 33.2701 54.13C33.2657 54.0717 33.2612 54.0134 33.2567 53.9574C33.2455 53.8116 33.2343 53.6659 33.2231 53.5201C33.2187 53.4708 33.2142 53.4215 33.2119 53.3722C33.1963 53.1861 33.1806 53.0022 33.1627 52.8206C33.1582 52.778 33.1537 52.7376 33.1493 52.6973C33.1358 52.5538 33.1202 52.4103 33.1045 52.269C33.0978 52.2129 33.0933 52.1546 33.0866 52.0986C33.0709 51.9551 33.053 51.8116 33.0373 51.6703C33.0329 51.6345 33.0284 51.5986 33.0239 51.5649C33.0038 51.3968 32.9814 51.2309 32.959 51.0672C32.9523 51.0111 32.9433 50.9551 32.9366 50.899C32.9209 50.7847 32.9053 50.6726 32.8896 50.5604C32.8807 50.5021 32.8717 50.4416 32.865 50.3833C32.8448 50.2488 32.8247 50.1165 32.8045 49.9864C32.7956 49.9214 32.7844 49.8586 32.7754 49.7959C32.7598 49.6927 32.7419 49.5896 32.7262 49.4887C32.715 49.4192 32.7038 49.3497 32.6926 49.2824C32.6792 49.2062 32.668 49.1322 32.6546 49.0582C32.6434 48.9864 32.6299 48.9169 32.6188 48.8474C32.6076 48.7846 32.5964 48.7241 32.5852 48.6613C32.5606 48.5201 32.5337 48.3833 32.5091 48.2487C32.5024 48.2129 32.4956 48.1748 32.4889 48.1389C32.471 48.0492 32.4553 47.9617 32.4374 47.8743C32.4374 47.8631 32.433 47.8519 32.4307 47.8407C32.1129 46.2308 31.8398 45.2465 31.8398 45.2465C31.8398 45.2465 31.804 39.9257 31.7122 38.0019C31.504 33.6297 31.1459 30.8763 31.1459 30.8763C29.8834 26.486 26.848 26.6385 25.2878 26.2596C25.2184 26.2416 25.149 26.226 25.0774 26.208C25.0841 26.1878 25.0886 26.1654 25.0953 26.1452C25.1916 26.1026 25.2878 26.0488 25.3617 26.0107C25.7422 25.8201 25.9705 25.4636 26.1026 25.0735C26.1854 24.8268 26.181 24.5578 26.1317 24.2932C26.1317 24.2932 26.1362 24.2932 26.1384 24.2932C26.1429 24.3313 26.1541 24.3672 26.1563 24.4075C26.1563 24.421 26.1765 24.4165 26.1765 24.403C26.1765 24.3672 26.172 24.3358 26.172 24.3022C26.2817 24.3313 26.3959 24.3403 26.5145 24.3156C26.5906 24.2999 26.6645 24.2752 26.7316 24.2439C26.7495 24.2349 26.7652 24.2214 26.7831 24.2125C26.8301 24.1878 26.8771 24.1631 26.9197 24.1317C26.9465 24.1116 26.9711 24.0869 26.9958 24.0645C27.0226 24.0398 27.054 24.0174 27.0786 23.9882C27.1099 23.9546 27.1345 23.9165 27.1636 23.8806C27.1793 23.8604 27.1972 23.8403 27.2107 23.8178C27.2397 23.7708 27.2644 23.7214 27.289 23.6721C27.2957 23.6564 27.3047 23.6429 27.3136 23.6273C27.3382 23.5734 27.3584 23.5151 27.3763 23.4591C27.3808 23.4479 27.3852 23.4367 27.3897 23.4232C27.4076 23.3649 27.4188 23.3066 27.43 23.2461C27.4323 23.2349 27.4367 23.2214 27.439 23.2102C27.4479 23.1542 27.4524 23.1003 27.4546 23.0443C27.4546 23.0308 27.4591 23.0151 27.4591 22.9994C27.4591 22.9994 27.4591 23.0017 27.4591 23.0039C27.4591 22.995 27.4614 22.9837 27.4614 22.9748C27.4614 22.9322 27.4143 22.9367 27.392 22.9591C27.2509 23.1048 27.2286 23.3335 27.0137 23.4098C26.5525 23.5667 26.1317 23.1115 26.1429 22.7057C26.1563 22.1922 26.4585 21.7797 26.8189 21.4366C26.8928 21.3671 26.9689 21.2999 27.045 21.2348C27.0517 21.2303 27.0562 21.2236 27.0629 21.2191C27.139 21.1541 27.2151 21.0936 27.289 21.0353C27.7121 20.7012 28.1441 20.3985 28.5179 20.0039C28.8716 19.6339 29.0238 19.1406 29.1939 18.672C29.5297 17.7393 29.3909 16.6765 28.8291 15.8715C28.6433 15.6069 28.3881 15.4096 28.1262 15.2213C28.153 15.2101 28.1799 15.1966 28.2157 15.1809C28.2224 15.1764 28.2291 15.1585 28.2157 15.1585C28.2068 15.1585 28.1978 15.1585 28.1889 15.1585C28.2985 15.1204 28.4037 15.0733 28.5022 15.0083C28.5336 14.9858 28.5649 14.9612 28.5963 14.932C28.6007 14.9276 28.6052 14.9253 28.6074 14.9208C28.6142 14.9141 28.6186 14.9074 28.6254 14.9006C28.6455 14.8805 28.6634 14.8625 28.6813 14.8401C28.688 14.8311 28.6947 14.8244 28.7015 14.8154C28.7059 14.8087 28.7104 14.802 28.7149 14.7953C28.7283 14.7751 28.7418 14.7571 28.7552 14.7347C28.7641 14.7213 28.7709 14.7101 28.7798 14.6966C28.782 14.6921 28.7865 14.6854 28.7888 14.6809C28.8 14.6585 28.8111 14.6361 28.8201 14.6136C28.8246 14.6024 28.8313 14.589 28.8358 14.5778C28.8358 14.5733 28.838 14.5688 28.8402 14.5666C28.847 14.5509 28.8492 14.5352 28.8559 14.5172C28.8626 14.4993 28.8671 14.4791 28.8716 14.4612C28.8716 14.4522 28.8738 14.4455 28.8761 14.4365C28.8805 14.4186 28.8828 14.4029 28.8828 14.3849C28.8828 14.3692 28.8872 14.3513 28.8872 14.3356C28.8872 14.3244 28.8872 14.3132 28.8872 14.302C28.8872 14.2863 28.8872 14.2728 28.8872 14.2571C28.8872 14.2571 28.8872 14.2527 28.8872 14.2504C28.8872 14.2392 28.8828 14.228 28.8805 14.219C28.8783 14.2011 28.8761 14.1854 28.8716 14.1674C28.8649 14.1405 28.8559 14.1136 28.8447 14.0867C28.8402 14.0778 28.8402 14.0688 28.8358 14.0598C28.8358 14.0598 28.8358 14.0621 28.8358 14.0643C28.8268 14.0441 28.8201 14.0217 28.8067 14.0038C28.7843 13.9724 28.7373 14.0038 28.7395 14.0352C28.7485 14.5733 28.2403 14.6988 27.8397 14.5195C27.5151 14.3737 27.3606 14.0015 27.2733 13.6831C27.0786 12.9858 27.2263 12.2212 27.2644 11.5127C27.3293 10.3288 27.2689 9.17633 26.8256 8.0799C26.8301 8.05524 26.8301 8.02833 26.8346 8.00367C26.848 7.90053 26.857 7.79963 26.8637 7.69424C26.8637 7.66061 26.8682 7.62474 26.8704 7.5911C26.8928 7.08661 26.8413 6.57315 26.7294 6.06417C26.6913 5.89152 26.6443 5.72336 26.5951 5.5552C26.5794 5.50138 26.5615 5.44981 26.5436 5.396C26.5055 5.27941 26.4652 5.16281 26.4227 5.0507C26.4003 4.99241 26.3779 4.93411 26.3556 4.87805C26.3063 4.75698 26.2526 4.63814 26.1989 4.52155C26.1787 4.47894 26.1608 4.43634 26.1407 4.39374C26.069 4.248 25.9929 4.10674 25.9123 3.96548C25.8743 3.89822 25.8318 3.83095 25.7915 3.76369C25.7445 3.68521 25.6952 3.60673 25.6437 3.5305C25.5967 3.45875 25.5475 3.387 25.4982 3.31525C25.449 3.24574 25.3953 3.17623 25.3438 3.10672C24.1328 1.50804 22.3286 0.366766 20.3252 0.0954612C17.5092 -0.285711 14.2119 0.481118 11.978 2.27935C11.3713 2.76815 10.7244 3.38924 10.2902 4.04172C9.69251 4.94084 9.28287 5.93188 9.11722 6.96329C9.11499 6.98123 9.11051 6.99917 9.10827 7.0171C9.09708 7.09782 9.08589 7.1763 9.07693 7.25478C9.07246 7.29065 9.06798 7.32653 9.06574 7.36016C9.05902 7.43191 9.05455 7.50142 9.05007 7.57317C9.04783 7.61801 9.04336 7.66285 9.04112 7.7077C9.03888 7.77272 9.03664 7.83999 9.03664 7.90501C9.03664 7.95658 9.03664 8.00815 9.03664 8.05972C9.03664 8.12026 9.03664 8.18304 9.04112 8.24358C9.04112 8.29964 9.04783 8.35793 9.05231 8.41399C9.05679 8.47229 9.06126 8.52834 9.06574 8.58664C9.07022 8.63597 9.07693 8.68529 9.08365 8.73686C9.08812 8.7705 9.0926 8.80637 9.09708 8.84C9.10156 8.87139 9.10603 8.90279 9.11051 8.93193C9.11499 8.96332 9.1217 8.99472 9.12618 9.02611C9.13513 9.07992 9.14632 9.13373 9.15752 9.18754C9.16423 9.21894 9.16871 9.24808 9.17542 9.27947C9.17766 9.29517 9.18214 9.30862 9.18438 9.32432C9.20676 9.42522 9.23139 9.52611 9.26049 9.62701C9.46195 10.349 9.90068 11.1831 10.1559 12.0149C10.0842 12.0912 10.0193 12.1764 9.9656 12.2593C9.65669 12.7347 9.55596 13.219 9.83353 13.7168C10.1671 14.3177 10.429 14.9208 10.5521 15.6025C10.6192 15.9724 10.6909 16.4321 11.0468 16.6383C11.2908 16.7796 11.5124 16.6383 11.6623 16.441C11.6803 16.7908 11.7094 17.1384 11.7698 17.4792C11.8884 18.1608 12.3428 18.7864 12.7458 19.3267C12.9808 19.6429 13.9993 20.542 14.8611 21.273C14.8656 21.5061 14.8701 21.7438 14.8701 21.9882C14.8701 22.6093 14.8477 23.2483 14.7872 23.829C14.6664 25.0062 11.875 25.7439 9.79995 26.2484C8.23975 26.6273 5.20441 26.4748 3.93968 30.865C3.93968 30.865 3.57929 33.6185 3.37111 37.9907C3.27934 39.9123 3.24352 45.2352 3.24352 45.2352C3.24352 45.2352 1.15952 52.7062 1.84225 60.2041C1.84896 60.6772 1.8803 61.4239 1.91388 62.1727C1.09684 63.0001 0.134307 64.6481 0 66.0024C0.00223845 66.1594 0.0134307 66.3096 0.0358153 66.4486C0.308907 68.1527 1.16847 70.0922 1.16847 70.0922L2.05266 71.0384L2.34366 71.35C2.34366 71.35 2.34366 71.3545 2.34814 71.3612C2.34814 71.3635 2.35038 71.3657 2.35262 71.3702C2.35485 71.3769 2.35933 71.3814 2.36157 71.3904C2.36605 71.3971 2.36828 71.4038 2.37276 71.4128C2.37724 71.424 2.38395 71.4352 2.39067 71.4487C2.39515 71.4554 2.39738 71.4621 2.39962 71.4689C2.41082 71.4913 2.42201 71.516 2.43544 71.5429C2.43991 71.5518 2.44439 71.5608 2.44887 71.5698C2.46006 71.5922 2.47125 71.6146 2.48245 71.637C2.48692 71.6482 2.49364 71.6572 2.49811 71.6684C2.50931 71.6931 2.52274 71.7178 2.53617 71.7447C2.54288 71.7581 2.5496 71.7716 2.55631 71.785C2.57422 71.8209 2.59437 71.859 2.61451 71.8971C2.61451 71.8994 2.61451 71.9016 2.61899 71.9061C2.64138 71.9509 2.666 71.9958 2.69062 72.0429C2.6951 72.0518 2.69958 72.0608 2.70405 72.0675C2.72644 72.1079 2.74658 72.1482 2.76897 72.1908C2.77344 72.1998 2.78016 72.2088 2.78464 72.22C2.80926 72.2648 2.83388 72.3119 2.85851 72.359C2.86074 72.3635 2.86522 72.3702 2.86746 72.3747C2.9279 72.4846 2.99057 72.5945 3.05549 72.7066C3.05549 72.7066 3.05549 72.7088 3.05549 72.711C3.08907 72.7671 3.1204 72.8232 3.15398 72.8792C3.56362 73.5653 4.02922 74.2088 4.29559 74.1281C4.29559 74.1281 4.33141 74.1169 4.38065 74.0855C4.38065 74.0855 4.38737 74.081 4.39185 74.0788C4.40304 74.0721 4.41423 74.0631 4.42766 74.0519C4.43438 74.0474 4.43885 74.0429 4.44557 74.0362C4.46348 74.0205 4.48139 74.0048 4.49705 73.9846C4.49705 73.9846 4.50153 73.9801 4.50377 73.9779C4.51944 73.9577 4.53511 73.9375 4.54854 73.9129C4.55302 73.9061 4.55525 73.8994 4.55973 73.8927C4.5754 73.8635 4.58883 73.8321 4.60226 73.7963C4.60226 73.7963 4.60226 73.7963 4.60226 73.7918C4.61345 73.7581 4.62241 73.72 4.62688 73.6774C4.62688 73.6685 4.62912 73.6572 4.63136 73.6483C4.63584 73.6034 4.64032 73.5541 4.63584 73.5025C4.6336 73.451 4.62465 73.3927 4.61345 73.3321C4.61122 73.3164 4.60674 73.303 4.6045 73.2873C4.59107 73.2223 4.57316 73.155 4.54854 73.0832C4.53735 73.0519 4.52615 73.0182 4.51496 72.9846C4.62017 73.0832 4.70747 73.1393 4.76567 73.1281C5.09696 73.0586 5.55808 72.7536 4.86864 71.6438C4.80372 71.5406 4.73881 71.4375 4.67389 71.3366C4.79701 71.3186 4.89774 71.2559 4.94922 71.1146C5.07905 70.7446 4.88655 70.3971 4.53735 70.0114C4.55302 69.9868 4.56869 69.9576 4.58212 69.9262C4.79701 69.3074 4.11876 68.7491 3.30172 67.9778C3.26367 67.9419 3.22785 67.9038 3.19204 67.8657C3.26367 67.3343 3.44722 66.1168 3.63301 66.0069C3.64644 65.9979 3.65987 65.9934 3.67554 65.9912C3.68002 65.9912 3.68226 65.9912 3.68673 65.9912C3.68897 65.9912 3.69121 65.9912 3.69345 65.9912C3.7024 65.9912 3.7136 65.9912 3.72255 65.9934C3.72479 65.9934 3.72926 65.9934 3.7315 65.9957C3.74046 65.9979 3.74941 66.0024 3.75836 66.0069C3.76508 66.0091 3.76956 66.0136 3.77627 66.0159C3.78299 66.0203 3.79194 66.0271 3.79866 66.0338C3.82999 66.0585 3.86133 66.0943 3.89267 66.1369C3.89267 66.1369 3.89267 66.1369 3.89267 66.1392C3.90386 66.1549 3.91729 66.1728 3.92849 66.193C4.06503 66.415 4.17024 66.7692 4.168 66.9912C4.16576 67.3589 4.77462 69.0406 5.58271 69.1549C5.5939 69.1549 5.60733 69.1617 5.61852 69.1617C5.61852 69.1617 5.70806 69.1998 5.80879 69.2087C5.8155 69.2087 5.81998 69.2087 5.8267 69.2087C5.83341 69.2087 5.84013 69.2087 5.84684 69.2087C5.8558 69.2087 5.86475 69.2087 5.87147 69.2087C5.87818 69.2087 5.88266 69.2087 5.88937 69.2087C5.89833 69.2087 5.90728 69.2087 5.91623 69.2043C5.92295 69.2043 5.92743 69.202 5.93414 69.1998C5.9431 69.1998 5.95205 69.1953 5.95877 69.1908C5.96548 69.1908 5.96996 69.1863 5.97443 69.1841C5.98339 69.1796 5.9901 69.1751 5.99682 69.1706C6.0013 69.1661 6.00577 69.1639 6.01025 69.1594C6.01696 69.1527 6.02368 69.146 6.02816 69.1392C6.03263 69.1348 6.03711 69.1303 6.03935 69.1235C6.04383 69.1146 6.0483 69.1056 6.05278 69.0966C6.05502 69.0899 6.0595 69.0832 6.06173 69.0765C6.06621 69.0652 6.06845 69.054 6.07069 69.0406C6.07069 69.0316 6.07516 69.0249 6.07516 69.0159C6.07516 69.0025 6.07516 68.9845 6.07516 68.9688C6.07516 68.9599 6.07516 68.9509 6.07516 68.9419C6.07516 68.915 6.07069 68.8859 6.06621 68.8522C5.97443 68.3051 5.47526 67.8522 5.51331 66.4374C5.54689 65.1616 5.2738 63.4867 4.64032 62.4799C4.68956 62.0674 4.76343 61.6144 4.85073 61.1413C4.87983 60.9844 4.91117 60.8274 4.94251 60.6682C4.94251 60.6682 4.94251 60.6638 4.94251 60.6615C5.04548 60.1525 5.16411 59.6301 5.28947 59.1189C5.28947 59.1122 5.29171 59.1054 5.29394 59.1009C5.33424 58.9395 5.37453 58.7781 5.41706 58.6189C5.42154 58.6032 5.42601 58.5852 5.43049 58.5695C5.47078 58.4193 5.50884 58.2691 5.54913 58.1233C5.55584 58.1032 5.56032 58.083 5.56704 58.0628C5.60509 57.9216 5.64538 57.7825 5.68567 57.6458C5.69015 57.6278 5.69687 57.6099 5.70134 57.592C5.74387 57.4485 5.7864 57.305 5.8267 57.1682C6.5721 54.7376 7.60627 51.0223 7.57045 45.585C7.57045 44.7733 8.16812 42.9325 8.40763 40.9414C8.40763 40.9414 8.92024 43.6186 9.27839 46.381C9.63655 49.1411 9.45747 50.408 8.68968 52.7623C7.91965 55.1188 4.56197 61.0516 7.02203 76.5205C9.41494 89.6911 10.373 91.5813 10.1312 93.0343C9.89173 94.485 8.1144 101.375 11.1229 113.263C12.2175 117.721 12.3876 121.268 11.9108 122.145C11.4318 123.021 11.6355 123.595 11.8078 124.001C11.978 124.407 10.9169 126.264 10.0305 127.481C9.14409 128.696 7.94651 130.723 8.8016 131.398C9.27839 131.737 9.34778 131.331 9.55372 131.465C9.75966 131.6 10.2029 131.939 10.7155 131.465C11.058 131.972 11.7071 131.737 12.0138 131.499C12.3205 132.039 12.9718 131.905 13.4151 131.569C13.5516 132.075 15.8751 132.513 15.9445 130.622C15.9579 130.577 15.9691 130.533 15.9826 130.488C15.9938 130.45 16.0049 130.412 16.0161 130.371V130.367C16.2758 129.45 16.5646 128.14 16.2848 124.104C16.39 123.714 16.4459 123.355 16.4459 122.974C16.4459 122.959 16.4459 122.941 16.4459 122.925C16.4459 122.862 16.4414 122.799 16.437 122.737C16.437 122.703 16.4325 122.667 16.428 122.631C16.4213 122.564 16.4146 122.494 16.4056 122.425C16.3944 122.346 16.381 122.266 16.3653 122.185C16.3564 122.14 16.3452 122.093 16.3362 122.046C16.3206 121.976 16.3049 121.905 16.287 121.833C16.2758 121.79 16.2646 121.748 16.2534 121.703C16.2221 121.584 16.1863 121.463 16.146 121.335C15.8035 120.221 15.8729 117.994 16.2825 113.739C16.6922 109.483 17.1376 101.142 16.7951 95.5365C16.5892 92.4625 16.7615 88.7494 16.7951 85.6754C16.8086 84.4556 16.9138 81.1843 17.0369 77.6865C16.6384 71.6819 16.3989 68.5966 16.3452 67.924C16.7257 68.1101 17.1846 68.1594 17.6032 68.1168C17.9278 68.0832 18.3508 68.0338 18.7247 67.9015C18.6754 68.5204 18.4359 71.6056 18.0308 77.6865C18.1539 81.1843 18.2591 84.4556 18.2725 85.6754C18.3061 88.7494 18.4784 92.4625 18.2725 95.5365C17.93 101.142 18.3755 109.483 18.7851 113.739C19.197 117.994 19.2641 120.221 18.9217 121.335C18.8746 121.481 18.8344 121.62 18.7985 121.754C18.7762 121.842 18.7582 121.925 18.7403 122.006C18.7314 122.048 18.718 122.093 18.7112 122.133C18.6911 122.234 18.6777 122.328 18.6642 122.423C18.662 122.443 18.6575 122.465 18.653 122.485C18.6396 122.586 18.6329 122.683 18.6284 122.777C18.6284 122.79 18.6262 122.804 18.6262 122.815C18.6217 122.911 18.6217 123.008 18.6262 123.102C18.6262 123.113 18.6262 123.122 18.6262 123.131C18.6307 123.225 18.6396 123.32 18.6508 123.411C18.6508 123.42 18.6508 123.432 18.653 123.441C18.6642 123.535 18.6799 123.627 18.7 123.721C18.7 123.73 18.7023 123.741 18.7045 123.75C18.7247 123.844 18.7471 123.941 18.7717 124.037C18.7739 124.046 18.7762 124.055 18.7784 124.064C18.7829 124.077 18.7851 124.089 18.7873 124.102C18.4807 128.526 18.8567 129.676 19.1298 130.62C19.1992 132.51 21.5227 132.073 21.6593 131.566C21.675 131.578 21.6929 131.589 21.7085 131.6C21.7152 131.609 21.7264 131.618 21.7309 131.616C22.1719 131.914 22.7718 132.01 23.0628 131.497C23.3717 131.734 24.0209 131.97 24.3611 131.463C24.8737 131.936 25.3169 131.598 25.5229 131.463C25.7288 131.329 25.7982 131.734 26.275 131.396C26.3242 131.358 26.3645 131.313 26.4003 131.266C26.4115 131.25 26.4227 131.232 26.4317 131.214C26.4518 131.183 26.472 131.149 26.4876 131.113C26.4966 131.089 26.5078 131.064 26.5145 131.039C26.5234 131.008 26.5324 130.977 26.5391 130.943C26.5458 130.912 26.5525 130.88 26.5548 130.849C26.557 130.822 26.5593 130.795 26.5593 130.768C26.5637 130.705 26.5615 130.64 26.557 130.573C26.5615 130.575 26.566 130.577 26.5705 130.58C26.5861 130.591 26.5816 130.569 26.5727 130.562C26.566 130.557 26.5615 130.553 26.5548 130.548C26.5458 130.454 26.5302 130.358 26.5078 130.259C26.5078 130.255 26.5078 130.252 26.5078 130.25C26.4921 130.185 26.4742 130.12 26.4563 130.053C26.4563 130.048 26.4563 130.044 26.4518 130.039C26.1989 129.201 25.5676 128.199 25.0438 127.481C24.1574 126.266 23.0964 124.407 23.2665 124.001C23.4389 123.595 23.6426 123.021 23.1658 122.145C22.6867 121.266 22.8569 117.721 23.9515 113.263C24.1261 112.577 24.2805 111.909 24.4238 111.257C24.4305 111.227 24.4372 111.196 24.4439 111.167C24.5066 110.882 24.5648 110.602 24.6208 110.322C24.632 110.263 24.6454 110.2 24.6588 110.142C24.7103 109.88 24.7595 109.62 24.8065 109.364C24.82 109.292 24.8334 109.221 24.8468 109.149C24.8916 108.902 24.9319 108.662 24.9722 108.422C24.9856 108.342 24.9991 108.261 25.0125 108.182C25.0505 107.949 25.0864 107.721 25.1199 107.492C25.1311 107.411 25.1468 107.328 25.158 107.245C25.1916 107.021 25.2207 106.804 25.2498 106.584C25.261 106.501 25.2722 106.418 25.2833 106.335C25.3102 106.122 25.3348 105.911 25.3594 105.703C25.3684 105.62 25.3796 105.537 25.3885 105.456C25.4109 105.25 25.4311 105.05 25.4512 104.848C25.4602 104.765 25.4691 104.685 25.4758 104.602C25.4938 104.404 25.5117 104.212 25.5273 104.019C25.534 103.938 25.5408 103.86 25.5475 103.779C25.5631 103.588 25.5743 103.402 25.5878 103.218C25.5922 103.14 25.599 103.061 25.6034 102.985C25.6146 102.801 25.6236 102.622 25.6325 102.445C25.637 102.371 25.6393 102.297 25.6437 102.223C25.6504 102.048 25.6572 101.875 25.6616 101.703C25.6616 101.631 25.6661 101.559 25.6684 101.487C25.6728 101.317 25.6773 101.151 25.6773 100.987C25.6773 100.92 25.6773 100.851 25.6795 100.783C25.6795 100.62 25.6795 100.458 25.6795 100.301C25.6795 100.236 25.6795 100.171 25.6795 100.106C25.6795 99.9492 25.6773 99.7945 25.6728 99.6442C25.6728 99.5815 25.6728 99.5209 25.6684 99.4604C25.6639 99.3101 25.6594 99.1622 25.6549 99.0164C25.6549 98.9581 25.6504 98.9021 25.6482 98.846C25.6415 98.7003 25.637 98.559 25.6281 98.4178C25.6258 98.3639 25.6236 98.3124 25.6191 98.2586C25.6124 98.1195 25.6034 97.9828 25.5945 97.8482C25.59 97.7989 25.5878 97.7518 25.5855 97.7047C25.5766 97.5702 25.5654 97.4379 25.5564 97.3101C25.552 97.2653 25.5497 97.2227 25.5452 97.1801C25.534 97.0523 25.5229 96.9245 25.5117 96.8011C25.5072 96.7608 25.5049 96.7227 25.5005 96.6845C25.4893 96.5612 25.4758 96.4379 25.4624 96.3213C25.4579 96.2877 25.4535 96.254 25.4512 96.2182C25.4378 96.0993 25.4244 95.9827 25.4109 95.8684C25.4065 95.8392 25.4042 95.8123 25.3997 95.7832C25.3841 95.6688 25.3706 95.5545 25.355 95.4469C25.3527 95.4267 25.3483 95.4065 25.346 95.3841C25.3303 95.272 25.3147 95.1621 25.299 95.0567C25.2968 95.041 25.2945 95.0276 25.2923 95.0119C25.2766 94.902 25.2587 94.7966 25.243 94.6935C25.243 94.689 25.243 94.6867 25.243 94.6823C25.1155 93.8953 24.9946 93.3437 24.9453 93.0365C24.8513 92.467 24.9409 91.828 25.2319 90.4647C25.2542 90.4086 25.2766 90.3503 25.299 90.2965C25.3035 90.2853 25.2923 90.2629 25.2789 90.2427C25.7422 88.0902 26.651 84.2471 28.0545 76.5228C30.5146 61.0561 27.1569 55.1211 26.3869 52.7645C25.6191 50.4102 25.44 49.1434 25.7982 46.3832C26.1563 43.6231 26.6824 41.5401 26.6824 41.5401C26.9219 43.5312 27.5061 44.7801 27.5061 45.5895C27.4703 51.0268 28.5045 54.7421 29.2499 57.1727C29.3058 57.3565 29.3618 57.5471 29.4178 57.7422C29.4222 57.7601 29.429 57.7803 29.4334 57.8005C29.4894 57.9955 29.5431 58.1951 29.5991 58.3991C29.5991 58.4059 29.6036 58.4148 29.6058 58.4216C29.6595 58.6278 29.7132 58.8364 29.767 59.0494C29.7692 59.0606 29.7737 59.0718 29.7759 59.083C30.0512 60.1929 30.2885 61.3543 30.4161 62.3252C30.4251 62.3902 30.4318 62.453 30.4407 62.5158C29.8184 63.527 29.5498 65.184 29.5834 66.4486C29.6215 67.8612 29.1223 68.3163 29.0305 68.8634C29.0238 68.8948 29.0216 68.9262 29.0216 68.9531C29.0216 68.9643 29.0216 68.9711 29.0216 68.98C29.0216 68.9957 29.0216 69.0114 29.0216 69.0271C29.0216 69.0361 29.0238 69.0451 29.026 69.054C29.026 69.0652 29.0305 69.0787 29.035 69.0877C29.0372 69.0966 29.0417 69.1034 29.0439 69.1101C29.0484 69.119 29.0529 69.128 29.0574 69.1347C29.0619 69.1415 29.0663 69.146 29.0708 69.1527C29.0753 69.1594 29.082 69.1661 29.0865 69.1706C29.0909 69.1751 29.0977 69.1796 29.1021 69.1841C29.1089 69.1886 29.1156 69.193 29.1223 69.1975C29.129 69.202 29.1335 69.2043 29.1402 69.2065C29.1469 69.2087 29.1559 69.2132 29.1626 69.2155C29.1693 69.2155 29.176 69.2199 29.1805 69.2199C29.1894 69.2199 29.1962 69.2222 29.2051 69.2244C29.2118 69.2244 29.2185 69.2244 29.2253 69.2244C29.2342 69.2244 29.2432 69.2244 29.2499 69.2244C29.2566 69.2244 29.2633 69.2244 29.27 69.2244C29.2767 69.2244 29.2857 69.2244 29.2924 69.2244C29.2991 69.2244 29.3081 69.2244 29.3148 69.2244C29.3148 69.2244 29.317 69.2244 29.3193 69.2244C29.4066 69.211 29.4782 69.1796 29.4782 69.1796C30.3042 69.1123 30.9332 67.3814 30.9287 67.0069C30.9287 66.7849 31.0339 66.4307 31.1705 66.2087C31.2108 66.1414 31.2555 66.0876 31.3003 66.0517C31.3093 66.045 31.316 66.0383 31.3249 66.0338C31.3316 66.0293 31.3361 66.0271 31.3428 66.0248C31.3518 66.0203 31.3607 66.0159 31.3697 66.0136C31.3742 66.0136 31.3786 66.0114 31.3854 66.0091C31.3943 66.0091 31.4055 66.0069 31.4167 66.0091C31.4212 66.0091 31.4257 66.0091 31.4279 66.0091C31.4413 66.0114 31.457 66.0159 31.4704 66.0248C31.6562 66.1347 31.8398 67.3522 31.9114 67.8836C31.8756 67.9217 31.8398 67.9598 31.8017 67.9957C30.9847 68.767 30.3064 69.3276 30.5213 69.9442C30.5325 69.9778 30.5482 70.0047 30.5661 70.0294C30.2169 70.415 30.0244 70.7648 30.1542 71.1325C30.2035 71.2738 30.3042 71.3388 30.4295 71.3545C30.3646 71.4577 30.2997 71.5608 30.237 71.6617C29.5476 72.7716 30.0087 73.0765 30.34 73.146C30.3982 73.1572 30.4855 73.1034 30.5907 73.0048C30.5795 73.0384 30.5661 73.072 30.5571 73.1034C30.5325 73.1752 30.5146 73.2424 30.5012 73.3052C30.4967 73.3232 30.4945 73.3389 30.49 73.3545C30.481 73.4106 30.4721 73.4644 30.4698 73.5115C30.4698 73.516 30.4698 73.5205 30.4698 73.525C30.4698 73.5765 30.4698 73.6236 30.4743 73.6662C30.4743 73.6774 30.4766 73.6909 30.4788 73.7021C30.4855 73.7402 30.4922 73.7761 30.5034 73.8075C30.5034 73.8097 30.5034 73.8142 30.5057 73.8164C30.5168 73.8523 30.5325 73.8815 30.5459 73.9106C30.5504 73.9173 30.5549 73.9263 30.5594 73.933C30.5728 73.9555 30.5885 73.9779 30.6041 73.9958C30.6041 73.9981 30.6086 74.0025 30.6109 74.0048C30.6288 74.025 30.6444 74.0407 30.6623 74.0564C30.6691 74.0608 30.6735 74.0653 30.6803 74.0721C30.6914 74.081 30.7026 74.09 30.7138 74.0967C30.7183 74.099 30.7228 74.1034 30.725 74.1057C30.7743 74.1348 30.8101 74.146 30.8101 74.146C31.2309 74.2716 32.1464 72.5989 32.5606 71.7895C32.5606 71.7895 32.5606 71.7873 32.5628 71.785C32.5829 71.7469 32.6008 71.711 32.6165 71.6774C32.6188 71.6707 32.6232 71.6662 32.6255 71.6595C32.6411 71.6258 32.6568 71.5944 32.6725 71.5675C32.6725 71.5675 32.6725 71.5653 32.6725 71.563C32.6859 71.5339 32.6993 71.507 32.7128 71.4823C32.715 71.4756 32.7172 71.4734 32.7195 71.4666C32.7284 71.4487 32.7352 71.433 32.7419 71.4195C32.7441 71.4128 32.7463 71.4106 32.7486 71.4061C32.7531 71.3949 32.7575 71.3859 32.762 71.3792C32.762 71.3747 32.7643 71.3747 32.7665 71.3702C32.7687 71.3635 32.771 71.359 32.771 71.359L33.062 71.0473L33.9439 70.1011C33.9439 70.1011 33.9462 70.0944 33.9506 70.0854C33.9506 70.081 33.9529 70.0787 33.9551 70.072C33.9596 70.0608 33.9663 70.0473 33.973 70.0294L33.9663 70.0271ZM20.1304 21.6743C20.2244 21.6048 20.3162 21.5353 20.408 21.4635C20.4147 21.4927 20.4214 21.5218 20.4304 21.5487C20.4438 21.5981 20.4595 21.6496 20.4796 21.699C20.4819 21.7057 20.4886 21.7057 20.493 21.7035C20.549 21.9389 20.6408 22.1653 20.7191 22.394C20.7393 22.4546 20.7594 22.5129 20.7773 22.5734C20.934 23.1093 20.7773 23.6833 20.2289 23.7214C20.2289 23.708 20.2222 23.6945 20.2222 23.6833C20.1752 23.2304 20.1506 22.755 20.1371 22.2887C20.1304 22.0801 20.1282 21.8739 20.1282 21.6721L20.1304 21.6743ZM20.9206 24.0645C20.9788 24.0398 21.0303 24.0107 21.0818 23.9793C21.131 23.9479 21.178 23.9143 21.2228 23.8784C21.2317 23.9075 21.2452 23.9322 21.2541 23.9591C21.2653 23.9882 21.2765 24.0174 21.2877 24.0443C21.3078 24.0891 21.3325 24.1317 21.3571 24.1743C21.3571 24.1743 21.3571 24.1788 21.3616 24.1811C21.3616 24.1833 21.3616 24.1856 21.3638 24.1878C21.4198 24.3268 21.4847 24.4613 21.5541 24.5847C21.5832 24.6385 21.6168 24.6923 21.6526 24.7439C21.6772 24.7797 21.7041 24.8156 21.7309 24.8515C21.7399 24.8649 21.7511 24.8784 21.76 24.8918C21.7914 24.9322 21.8272 24.9726 21.863 25.0129C21.8675 25.0197 21.8742 25.0241 21.8787 25.0309C21.9145 25.0712 21.9525 25.1093 21.9928 25.1475C21.9951 25.1497 21.9995 25.1542 22.0018 25.1564C22.0443 25.1968 22.0868 25.2349 22.1316 25.273C21.3302 24.9344 20.6699 24.5421 20.3811 24.1026C20.5759 24.1407 20.7885 24.1273 20.9206 24.069V24.0645Z" fill="#FAE2FF"/>
</svg>
