<svg width="160" height="31" viewBox="0 0 160 31" fill="none" xmlns="http://www.w3.org/2000/svg">
<path d="M0 5C0 2.23857 2.23858 0 5 0H87.2727V30.9091H5C2.23858 30.9091 0 28.6705 0 25.9091V5Z" fill="white"/>
<path d="M87.2727 0H155C157.761 0 160 2.23858 160 5V25.9091C160 28.6705 157.761 30.9091 155 30.9091H87.2727V0Z" fill="#CC0DF8"/>
<path d="M9.19421 23.6364V7.76862H14.5558C15.8006 7.76862 16.8182 7.99331 17.6085 8.44269C18.4039 8.8869 18.9928 9.48866 19.375 10.248C19.7572 11.0073 19.9483 11.8544 19.9483 12.7893C19.9483 13.7242 19.7572 14.5739 19.375 15.3383C18.9979 16.1028 18.4143 16.7123 17.624 17.1669C16.8337 17.6162 15.8213 17.8409 14.5868 17.8409H10.7438V16.1364H14.5248C15.3771 16.1364 16.0615 15.9892 16.578 15.6948C17.0945 15.4003 17.469 15.0026 17.7014 14.5016C17.939 13.9954 18.0578 13.4246 18.0578 12.7893C18.0578 12.1539 17.939 11.5858 17.7014 11.0847C17.469 10.5837 17.0919 10.1911 16.5702 9.90705C16.0486 9.61779 15.3564 9.47316 14.4938 9.47316H11.1157V23.6364H9.19421Z" fill="black"/>
<path d="M22.0752 23.6364H20.0607L25.8871 7.76862H27.8706L33.6971 23.6364H31.6826L26.9409 10.2789H26.8169L22.0752 23.6364ZM22.819 17.438H30.9388V19.1426H22.819V17.438Z" fill="black"/>
<path d="M33.1857 7.76862H35.3861L39.7869 15.1756H39.9729L44.3737 7.76862H46.5741L40.8406 17.0971V23.6364H38.9192V17.0971L33.1857 7.76862Z" fill="black"/>
<path d="M49.0593 7.76862H51.3527L56.7452 20.9401H56.9312L62.3237 7.76862H64.6171V23.6364H62.8196V11.5806H62.6646L57.706 23.6364H55.9704L51.0117 11.5806H50.8568V23.6364H49.0593V7.76862Z" fill="black"/>
<path d="M68.4698 23.6364V7.76862H78.0462V9.47316H70.3913V14.8347H77.5504V16.5393H70.3913V21.9318H78.1702V23.6364H68.4698Z" fill="black"/>
<path d="M95.9246 23.6363V7.76858H106.431V10.5346H99.2794V14.3156H105.733V17.0816H99.2794V23.6363H95.9246Z" fill="white"/>
<path d="M109.441 23.6363H105.846L111.324 7.76858H115.647L121.117 23.6363H117.522L113.547 11.3946H113.423L109.441 23.6363ZM109.216 17.3993H117.708V20.0181H109.216V17.3993Z" fill="white"/>
<path d="M136.299 7.76858V23.6363H133.401L126.498 13.6493H126.382V23.6363H123.027V7.76858H125.971L132.82 17.7479H132.96V7.76858H136.299Z" fill="white"/>
<path d="M147.679 12.3321C147.617 11.7071 147.351 11.2216 146.881 10.8755C146.411 10.5294 145.773 10.3564 144.967 10.3564C144.42 10.3564 143.957 10.4339 143.58 10.5888C143.203 10.7386 142.914 10.9478 142.712 11.2164C142.516 11.485 142.418 11.7898 142.418 12.1307C142.408 12.4148 142.467 12.6627 142.596 12.8745C142.73 13.0862 142.914 13.2696 143.146 13.4246C143.379 13.5744 143.647 13.7061 143.952 13.8197C144.257 13.9282 144.582 14.0212 144.928 14.0986L146.354 14.4395C147.046 14.5945 147.681 14.8011 148.26 15.0594C148.838 15.3176 149.339 15.6353 149.763 16.0124C150.187 16.3894 150.515 16.8337 150.747 17.345C150.985 17.8564 151.106 18.4426 151.111 19.1038C151.106 20.0749 150.858 20.9168 150.367 21.6296C149.882 22.3373 149.179 22.8874 148.26 23.2799C147.346 23.6673 146.243 23.861 144.952 23.861C143.671 23.861 142.555 23.6648 141.604 23.2722C140.659 22.8796 139.921 22.2985 139.389 21.5289C138.862 20.7541 138.585 19.796 138.56 18.6544H141.806C141.842 19.1864 141.994 19.6307 142.263 19.9871C142.537 20.3383 142.901 20.6043 143.355 20.7851C143.815 20.9607 144.334 21.0485 144.913 21.0485C145.481 21.0485 145.974 20.9659 146.393 20.8006C146.816 20.6353 147.144 20.4055 147.377 20.111C147.609 19.8166 147.725 19.4783 147.725 19.0961C147.725 18.7397 147.619 18.4401 147.408 18.1973C147.201 17.9545 146.896 17.7479 146.493 17.5775C146.096 17.407 145.608 17.252 145.029 17.1126L143.301 16.6787C141.963 16.3533 140.907 15.8445 140.132 15.1524C139.358 14.4602 138.973 13.5279 138.978 12.3554C138.973 11.3946 139.228 10.5553 139.745 9.83728C140.267 9.1193 140.982 8.55887 141.891 8.15597C142.8 7.75308 143.833 7.55164 144.99 7.55164C146.168 7.55164 147.196 7.75308 148.074 8.15597C148.957 8.55887 149.644 9.1193 150.135 9.83728C150.626 10.5553 150.879 11.3869 150.894 12.3321H147.679Z" fill="white"/>
</svg>
