<svg width="32" height="132" viewBox="0 0 32 132" fill="none" xmlns="http://www.w3.org/2000/svg">
<path d="M30.9566 13.696C30.7708 13.4314 30.5156 13.2341 30.256 13.0458C30.2828 13.0346 30.3097 13.0211 30.3455 13.0054C30.3522 13.0009 30.3567 12.983 30.3455 12.983C30.3365 12.983 30.3254 12.983 30.3164 12.983C30.4261 12.9449 30.5335 12.8978 30.632 12.8328C30.6634 12.8103 30.6969 12.7857 30.726 12.7565C30.7283 12.7543 30.7328 12.752 30.735 12.7476C30.7439 12.7386 30.7507 12.7296 30.7596 12.7206C30.7775 12.7027 30.7954 12.6825 30.8111 12.6624C30.8178 12.6556 30.8223 12.6489 30.829 12.6422C30.8357 12.6332 30.8402 12.6242 30.8469 12.6153C30.8603 12.5973 30.8738 12.5771 30.8872 12.557C30.8939 12.5458 30.9006 12.5345 30.9074 12.5233C30.9118 12.5166 30.9163 12.5099 30.9185 12.5032C30.932 12.4785 30.9432 12.4538 30.9521 12.4292C30.9566 12.4202 30.9611 12.4112 30.9633 12.4023C30.9633 12.3978 30.9656 12.3933 30.9678 12.3888C30.9745 12.3731 30.9767 12.3574 30.9812 12.344C30.9879 12.3238 30.9947 12.3036 30.9991 12.2812C30.9991 12.2745 31.0014 12.2677 31.0036 12.2588C31.0058 12.2431 31.0081 12.2274 31.0103 12.2117C31.0126 12.1915 31.0148 12.1736 31.0148 12.1534C31.0148 12.1444 31.0148 12.1332 31.0148 12.1242C31.0148 12.1108 31.0148 12.0973 31.0148 12.0861C31.0148 12.0816 31.0148 12.0771 31.0148 12.0749C31.0148 12.0749 31.0148 12.0749 31.0148 12.0771C31.0148 12.0659 31.0103 12.057 31.0081 12.0457C31.0058 12.0278 31.0036 12.0099 30.9991 11.9919C30.9924 11.965 30.9835 11.9381 30.9723 11.9135C30.9678 11.9045 30.9678 11.8933 30.9633 11.8843C30.9633 11.8843 30.9633 11.8866 30.9633 11.8888C30.9544 11.8686 30.9476 11.8462 30.9342 11.8283C30.9141 11.7969 30.8671 11.8283 30.8671 11.8596C30.8783 12.3978 30.3679 12.5233 29.9672 12.344C29.6426 12.2005 29.4904 11.826 29.4009 11.5076C29.2061 10.8103 29.3561 10.0457 29.3919 9.33718C29.4658 8.02102 29.3874 6.74297 28.7943 5.54116C28.2548 4.44697 27.1333 3.60166 25.9425 3.35502C25.7097 3.30793 25.4321 3.26309 25.15 3.2474C25.1411 3.2474 25.1344 3.2474 25.1254 3.2474C25.0784 3.24515 25.0336 3.24291 24.9889 3.24291C24.9531 3.24291 24.9173 3.24291 24.8814 3.24291C24.8523 3.24291 24.821 3.24291 24.7919 3.24291C24.7247 3.24515 24.6598 3.25188 24.5949 3.26085C24.577 3.26085 24.5591 3.26533 24.5412 3.26982C24.4897 3.27879 24.4382 3.28775 24.389 3.29897C24.3711 3.30345 24.3532 3.30793 24.3375 3.31242C24.2726 3.33036 24.2121 3.35054 24.1539 3.3752C23.9099 3.48283 23.648 3.57924 23.422 3.72722C23.3951 3.74516 23.3705 3.7631 23.3436 3.78104C22.8623 3.01196 22.1751 2.39985 21.4476 1.86621C21.3447 1.78997 21.2417 1.71822 21.1365 1.64871C21.0805 1.6106 21.0223 1.57696 20.9641 1.53885C20.9149 1.50746 20.8656 1.47606 20.8186 1.44692C20.7492 1.40431 20.6776 1.36396 20.606 1.3236C20.5679 1.30342 20.5321 1.28099 20.4941 1.26081C20.4157 1.21821 20.3351 1.17561 20.2545 1.13749C20.2255 1.1218 20.1941 1.1061 20.165 1.09265C20.08 1.05005 19.9927 1.00969 19.9054 0.971572C19.8807 0.960361 19.8561 0.94915 19.8292 0.937939C19.7397 0.897579 19.6479 0.859462 19.5584 0.823587C19.5338 0.814619 19.5114 0.80565 19.4868 0.794439C19.395 0.758564 19.3032 0.722689 19.2114 0.689056C19.1846 0.680087 19.1599 0.671118 19.1331 0.66215C19.0458 0.630759 18.9562 0.599368 18.8667 0.572462C18.8555 0.567977 18.8443 0.563493 18.8331 0.561251C18.8376 0.561251 18.8398 0.563493 18.8443 0.565735C17.743 0.213711 16.5768 0.043305 15.424 0.00742996C15.1733 -0.0015388 14.9203 -0.00153879 14.6696 0.00294559C14.6405 0.00294559 14.6092 0.00294559 14.5801 0.00294559C14.3361 0.00742997 14.0898 0.0186409 13.8459 0.032094C13.8123 0.032094 13.7787 0.0365784 13.7429 0.0388206C13.6399 0.0455472 13.537 0.0522738 13.4362 0.0612425C13.4362 0.0612425 13.4362 0.0634847 13.4362 0.0657269C13.0266 0.0993598 12.6192 0.141961 12.2118 0.198016C11.6947 0.272008 11.1821 0.480532 10.6896 0.648696C10.1703 0.825829 9.65547 1.02538 9.15182 1.24288C8.20943 1.65096 7.39016 2.29222 6.71414 3.06129C6.58431 3.20928 6.45672 3.36399 6.33584 3.52094C5.95531 3.9066 5.57925 4.29898 5.16737 4.65773C4.52046 5.22501 3.91607 5.6712 3.45943 6.42009C3.17291 6.89095 2.96025 7.42908 2.88638 7.98066C2.88638 7.97617 2.88638 7.97169 2.88638 7.96721C2.88191 8.00532 2.87743 8.04344 2.87519 8.07932C2.87519 8.09949 2.87071 8.11743 2.86847 8.13761C2.86176 8.22057 2.85952 8.30353 2.85952 8.3865C2.85952 8.41116 2.85952 8.43807 2.85952 8.46273C2.85952 8.54793 2.86624 8.63538 2.87743 8.72282C2.92444 9.0883 3.00726 9.44705 3.15724 9.78786C3.18186 9.84392 3.21096 9.89549 3.2423 9.94482C3.25349 9.96276 3.26468 9.97845 3.27587 9.99639C3.3005 10.03 3.32512 10.0637 3.35198 10.0973C3.36541 10.113 3.37661 10.1287 3.39004 10.1421C3.42809 10.187 3.46838 10.2273 3.50867 10.2699C3.51987 10.2811 3.5333 10.2946 3.54449 10.3058C3.66761 10.4291 3.79743 10.548 3.91159 10.669C3.9295 10.6892 3.96756 10.6511 3.95189 10.6287C3.92727 10.5906 3.90712 10.5502 3.88473 10.5121C3.87802 10.5076 3.87131 10.5009 3.86011 10.4919C3.86683 10.4964 3.87355 10.5031 3.8825 10.5076C3.53778 9.92464 3.44376 9.26543 3.51986 8.61071C3.52434 8.61071 3.52882 8.60399 3.52882 8.60175C3.52882 8.58829 3.52882 8.5726 3.52882 8.55914C3.5333 8.52775 3.53553 8.49636 3.54001 8.46721C3.6385 9.09279 3.91831 9.70042 4.29885 10.2072C4.35033 10.2744 4.40629 10.3394 4.46449 10.4C4.47568 10.4112 4.48688 10.4224 4.49807 10.4314C4.54956 10.4829 4.60104 10.5345 4.657 10.5816C4.66148 10.5861 4.66595 10.5906 4.66819 10.5928C4.73982 10.6556 4.81145 10.7161 4.88532 10.7767C4.90323 10.7924 4.92113 10.8103 4.93904 10.8282C4.97038 10.8574 5.00172 10.8888 5.03082 10.9202C5.03082 10.9471 5.03082 10.974 5.03082 11.0031C5.02634 11.0076 5.02187 11.0099 5.01739 11.0143C5.01291 11.0211 5.00844 11.03 5.00396 11.0368C5.01067 11.0525 5.02187 11.0682 5.02859 11.0861C5.02859 11.2341 5.02858 11.3798 5.02635 11.5188C5.01515 12.0592 5.28153 12.6332 5.01067 13.1175C4.96367 13.2027 4.9189 13.2812 4.87861 13.3529C4.87189 13.3642 4.86518 13.3754 4.8607 13.3866C4.55851 13.9157 4.41301 14.1332 4.17125 14.5929C3.94069 15.0301 3.7079 15.3776 3.32289 16.1288C3.28483 16.2028 3.25796 16.2723 3.24677 16.3373C3.24677 16.3373 3.24677 16.3373 3.24677 16.3395C3.23558 16.4068 3.23782 16.4673 3.26692 16.5256C3.26692 16.5301 3.2714 16.5324 3.2714 16.5346C3.28483 16.5593 3.3005 16.5839 3.32289 16.6064C3.32736 16.6108 3.33184 16.6153 3.33632 16.6198C3.36318 16.6445 3.39452 16.6691 3.43481 16.6938C3.86011 16.9449 4.44882 16.918 4.85622 17.1893C4.88308 17.2185 4.90323 17.2521 4.91218 17.2925C4.91218 17.2925 4.91218 17.297 4.91218 17.2992C4.9189 17.3306 4.92114 17.3665 4.91666 17.4091C4.91666 17.418 4.92114 17.4248 4.92785 17.4292C4.93457 17.6983 4.80921 18.0055 4.75101 18.2297C4.71296 18.3844 4.90771 18.5997 5.01963 18.6826C5.14051 18.7746 5.2972 18.945 5.45837 18.9741C5.45837 18.9764 5.45837 18.9786 5.45837 18.9808C5.45165 18.9808 5.44494 18.9853 5.43822 18.9853C5.44494 18.9921 5.44717 18.9988 5.45165 19.0055C5.44717 19.0279 5.4427 19.0504 5.43598 19.0728C5.4315 19.0862 5.42703 19.0997 5.42032 19.1154C5.4136 19.1333 5.40464 19.1513 5.39569 19.1692C5.33301 19.3015 5.25914 19.4338 5.31958 19.584C5.31958 19.5862 5.31958 19.5907 5.32406 19.593C5.36659 19.6916 5.42479 19.7858 5.50538 19.8531C5.52329 19.8688 5.54343 19.8844 5.56357 19.8957C5.57924 19.9046 5.59491 19.9114 5.61058 19.9181H5.61506C5.69564 19.9562 5.79189 19.9853 5.88367 20.019C5.97769 20.2342 5.93292 20.4876 5.92397 20.7208C5.91054 21.028 5.95754 21.3329 5.98888 21.6378C5.99559 21.6939 6.00679 21.7455 6.02246 21.7948C6.02694 21.8105 6.03365 21.8262 6.03812 21.8419C6.05156 21.8778 6.06723 21.9136 6.08514 21.945C6.09185 21.9562 6.09633 21.9697 6.10528 21.9809C6.15901 22.0706 6.22616 22.1491 6.30674 22.2163C6.31122 22.2186 6.31346 22.2231 6.3157 22.2253C6.3157 22.2253 6.3157 22.2253 6.3157 22.2231C6.403 22.2948 6.50149 22.3576 6.60893 22.4047C6.89322 22.5325 7.26256 22.5414 7.59609 22.5123C7.6722 22.5235 7.76845 22.528 7.87813 22.528H7.88262C7.89828 22.528 7.91395 22.528 7.92962 22.528C8.38627 22.5213 9.02646 22.4495 9.32641 22.5683C9.34208 22.5751 9.35999 22.5885 9.3779 22.6087C9.3779 22.6087 9.38014 22.611 9.38238 22.6132C9.40028 22.6334 9.4182 22.6603 9.4361 22.6917C9.4361 22.6917 9.4361 22.6939 9.43834 22.6962C9.45624 22.7275 9.47416 22.7657 9.49206 22.8105C9.49206 22.8105 9.49206 22.815 9.4943 22.8172C9.50997 22.8553 9.52564 22.898 9.54354 22.9428C9.8144 23.7007 10.0852 25.3487 10.1367 25.6469C10.2442 26.2657 10.0226 26.6177 9.69128 26.907C9.60622 26.981 9.53235 27.055 9.45848 27.129C9.45848 27.129 9.45625 27.1312 9.45401 27.1334C9.35775 27.2343 9.26374 27.3375 9.16077 27.4496C9.116 27.4967 9.10257 27.5841 9.09138 27.6581C9.0869 27.6828 9.08466 27.7052 9.08242 27.7231C9.06452 27.8061 9.06004 27.8801 9.0578 27.9541C9.00632 28.0572 8.94364 28.1604 8.91006 28.2232C8.76904 28.49 8.53848 28.7321 8.34821 28.9653C8.00125 29.3913 7.60504 29.7792 7.27823 30.2209C6.63132 31.0864 5.85905 31.8802 5.04202 32.5842C4.33467 33.1941 3.40795 33.6784 2.88191 34.4721C2.78118 34.6224 2.70283 34.8017 2.64239 34.9744C2.60434 35.0775 2.58643 35.1672 2.56629 35.2748C2.53719 35.452 2.41855 35.4744 2.35587 35.6067C2.29767 35.7278 2.282 35.8421 2.29095 35.952C2.38721 36.2054 2.52599 36.4341 2.56852 36.7143C2.62 37.0529 2.68716 37.3892 2.78118 37.7188C2.99159 38.4857 3.32064 39.1897 3.85563 39.7839C4.12872 40.0888 4.40405 40.3063 4.73087 40.5395C4.74654 40.5507 4.75773 40.5687 4.7734 40.5821C4.7152 40.5485 4.65476 40.5126 4.59433 40.4722C4.68386 40.5395 4.76669 40.6023 4.85175 40.6606C4.8607 40.674 4.86965 40.6897 4.87861 40.7054C4.89651 40.7346 4.91442 40.7637 4.92785 40.7974C4.93681 40.8175 4.94128 40.84 4.948 40.8624C4.95919 40.8983 4.97262 40.9341 4.97934 40.9722C4.98382 40.9969 4.98829 41.0216 4.99277 41.0462C4.99949 41.0888 5.0062 41.1314 5.01067 41.1763C5.0353 41.4341 5.02411 41.7391 5.02411 42.062C5.04649 42.4431 5.07335 42.8176 5.08678 43.1987C5.11812 44.1943 5.19423 45.1876 5.23452 46.1809C5.27481 47.1562 5.3845 48.1091 5.59267 49.0643C5.70012 49.5509 5.82771 50.0307 5.94411 50.5105C5.98441 50.8738 6.02917 51.2348 6.02022 51.6025C6.00007 52.2863 6.0135 52.9949 6.06723 53.6765C6.17691 55.0779 6.03813 56.4792 6.04261 57.8851C6.04261 58.5645 6.10304 59.2394 6.08066 59.921C6.05379 60.643 6.00903 61.365 6.06275 62.087C6.07842 62.2798 6.10528 62.4704 6.13886 62.661C6.12095 62.634 6.10304 62.6071 6.08514 62.578C6.13886 62.9009 6.21944 63.2193 6.32241 63.5287C6.18363 64.1318 6.0426 64.7327 5.89263 65.3336C5.5591 66.6767 5.29272 68.0332 5.01739 69.3898C4.75549 70.6925 4.43987 71.9795 4.26079 73.2979C4.08843 74.5603 3.93398 75.8226 3.77729 77.0872C3.69895 77.715 3.68775 78.3406 3.59374 78.9639C3.50196 79.5671 3.54001 80.1769 3.45271 80.7823C3.27811 81.9864 3.1841 83.2151 3.11694 84.4281C3.04755 85.6613 2.91101 86.8945 2.864 88.13C2.82371 89.2713 2.62672 90.4282 3.02293 91.5336C3.25573 92.1816 3.74371 92.6727 4.25632 93.1256C4.38167 93.287 4.4824 93.4485 4.57194 93.648C4.67939 93.8947 4.92113 94.1099 5.05097 94.3566C5.57029 95.3342 6.28883 96.1996 6.85293 97.1526C7.1193 97.601 7.46178 97.9867 7.73935 98.4284C8.04154 98.9082 8.35269 99.3679 8.68174 99.8298C9.40924 100.843 10.0718 101.904 10.7792 102.933C10.7792 102.933 10.7836 102.942 10.7881 102.946C11.0254 103.292 11.2672 103.635 11.5044 103.98C11.594 104.911 11.688 105.841 11.8021 106.767C11.9656 108.112 12.1088 109.462 12.3036 110.803C12.3976 111.44 12.4423 112.086 12.5296 112.725C12.6304 113.456 12.7557 114.186 12.8094 114.922C12.8542 115.554 12.8632 116.184 12.9035 116.814C12.9438 117.48 13.0243 118.133 13.0333 118.801C13.0378 119.406 13.1228 119.998 13.1005 120.606C13.0803 121.148 12.9751 121.678 12.89 122.211C12.8833 122.234 12.8766 122.256 12.8677 122.279C12.6483 122.859 12.317 123.299 11.8514 123.702C11.1306 124.328 10.2128 124.635 9.41372 125.142C8.96826 125.427 8.47133 125.622 7.98558 125.823C7.47745 126.034 6.97828 126.281 6.46567 126.48C5.99112 126.664 5.57477 126.855 5.09126 127.014C4.62343 127.171 4.10186 127.341 3.62507 127.478C3.43704 127.532 3.24678 127.566 3.05427 127.588C2.98711 127.604 2.91996 127.619 2.85057 127.631C2.47451 127.7 2.08502 127.671 1.70895 127.763C1.59927 127.79 1.40229 127.848 1.20083 127.931C1.06428 127.967 0.914303 128.019 0.820288 128.09C0.804619 128.099 0.793431 128.113 0.782238 128.126C0.775523 128.133 0.768804 128.137 0.764327 128.144C0.75985 128.151 0.757614 128.158 0.753137 128.167C0.744184 128.178 0.741943 128.189 0.737467 128.202C0.726274 128.211 0.715083 128.223 0.703891 128.232C0.694937 128.241 0.688218 128.25 0.679265 128.258C0.665834 128.272 0.654648 128.285 0.643455 128.301C0.63674 128.31 0.630019 128.319 0.623303 128.33C0.614349 128.344 0.605397 128.359 0.596443 128.375C0.591966 128.384 0.58749 128.395 0.583013 128.404C0.576297 128.42 0.571819 128.436 0.567342 128.454C0.565103 128.463 0.562865 128.474 0.560627 128.483C0.55615 128.501 0.556152 128.521 0.556152 128.539C0.556152 128.548 0.556152 128.554 0.556152 128.563C0.556152 128.59 0.562865 128.619 0.574057 128.649C0.654641 128.877 0.728514 128.998 0.927737 129.128C0.970267 129.158 1.00832 129.18 1.0419 129.211C1.09562 129.22 1.15158 129.225 1.2053 129.22C1.19859 129.227 1.19187 129.234 1.1874 129.241C1.18516 129.245 1.1874 129.25 1.19187 129.252C1.18963 129.258 1.18516 129.263 1.18292 129.27C1.18292 129.27 1.18739 129.267 1.18963 129.265C1.13367 129.382 1.12472 129.492 1.15158 129.588C1.15158 129.588 1.15158 129.593 1.15382 129.595C1.1583 129.613 1.16501 129.628 1.17173 129.644C1.17844 129.66 1.1874 129.673 1.19411 129.689C1.20754 129.711 1.22098 129.729 1.23664 129.75C1.25008 129.765 1.26574 129.783 1.28141 129.797C1.2926 129.808 1.30604 129.819 1.31947 129.828C1.33737 129.841 1.35752 129.855 1.37767 129.866C1.3911 129.873 1.40453 129.882 1.41796 129.889C1.44258 129.9 1.46944 129.911 1.49854 129.92C1.55002 129.94 1.60375 129.951 1.66195 129.958C1.66195 129.965 1.65747 129.972 1.65523 129.978C1.65523 129.983 1.65747 129.985 1.65971 129.985C1.64628 130.061 1.65299 130.137 1.69552 130.209C1.77611 130.346 1.89251 130.422 2.02682 130.465C2.05592 130.476 2.08949 130.483 2.12083 130.492C2.12083 130.51 2.12083 130.53 2.12531 130.548C2.12531 130.55 2.12755 130.548 2.12979 130.55C2.14322 130.788 2.34915 130.945 2.60434 131.01C2.69387 131.037 2.78789 131.052 2.88414 131.054C2.91324 131.167 2.99159 131.27 3.12366 131.357C3.21767 131.418 3.3296 131.46 3.44824 131.492C3.79744 131.593 4.22946 131.577 4.54508 131.546C4.80698 131.519 5.01067 131.456 5.24124 131.328C5.3733 131.256 5.50985 131.211 5.64864 131.182C5.9956 131.2 6.35823 131.306 6.69847 131.31C6.98723 131.312 7.26704 131.283 7.54461 131.236C7.51775 131.236 7.49088 131.236 7.46178 131.236C7.76174 131.187 8.05945 131.12 8.36388 131.054C9.71143 130.765 11.0321 130.635 12.411 130.64C13.4832 130.64 14.5465 130.933 15.6142 130.779C16.4066 130.664 17.0983 130.176 17.4363 129.458C17.4363 129.451 17.4408 129.449 17.4453 129.44C17.5505 129.223 17.6244 128.992 17.6647 128.821C17.752 128.447 17.7587 128.063 17.7094 127.684C17.7452 127.678 17.7788 127.671 17.8146 127.667C17.8975 127.658 17.9736 127.653 18.0474 127.653H18.0944C18.1638 127.653 18.2332 127.653 18.3026 127.66C18.372 127.664 18.4436 127.671 18.522 127.678C18.9115 127.716 19.2181 127.732 19.6076 127.662C19.9412 127.602 20.1941 127.35 20.4448 127.124C20.4784 127.099 20.512 127.075 20.5455 127.041C20.5567 127.03 20.5657 127.021 20.5769 127.01C20.5881 127.001 20.597 126.992 20.6082 126.983C20.6127 126.976 20.6149 126.971 20.6172 126.967C21.0783 126.503 21.3559 125.996 21.5327 125.357C21.7476 124.572 21.8148 123.745 21.9759 122.949C22.155 122.059 22.4773 121.22 22.8892 120.415C23.1198 119.969 23.5294 119.597 23.8876 119.261C24.1584 119.009 24.4852 118.832 24.727 118.545C25.1411 118.057 25.4612 117.409 25.5395 116.767C25.6089 116.178 25.5351 115.532 25.1075 115.088C24.8389 114.805 24.5569 114.539 24.248 114.305C24.1495 114.229 24.0487 114.166 23.9413 114.104C23.6055 113.868 23.2742 113.619 22.9496 113.366C22.728 113.191 22.5333 112.982 22.3587 112.758C22.3453 112.74 22.3341 112.72 22.3229 112.7C22.3229 112.7 22.3229 112.7 22.3251 112.702C22.1774 112.487 22.0476 112.256 21.9244 112.023C21.8841 111.915 21.8371 111.808 21.7745 111.725C21.6379 111.449 21.5081 111.173 21.3671 110.904C20.756 109.747 20.2948 108.487 19.8046 107.276C19.5338 106.608 19.2495 105.946 18.9719 105.283C18.8712 105.045 18.7727 104.807 18.6742 104.567C18.5645 104.298 18.4571 104.029 18.3519 103.758C18.2802 103.574 18.2064 103.393 18.1325 103.209C18.1817 102.07 18.1817 100.908 18.0027 99.7849C17.9042 99.1638 17.8146 98.545 17.6982 97.9261C17.5997 97.4127 17.452 96.9104 17.3267 96.4037C17.3267 96.4104 17.3267 96.4149 17.3267 96.4194C17.2886 96.2624 17.2505 96.1055 17.2192 95.9463C16.9685 94.6929 16.7558 93.435 16.4962 92.1861C16.3955 91.7108 16.3149 91.2399 16.241 90.7646C16.2611 90.4529 16.288 90.1412 16.3194 89.8229C16.429 88.7556 16.5163 87.6883 16.6238 86.621C16.7335 85.538 16.8857 84.4618 16.9931 83.3743C17.1118 82.1546 17.2573 80.9348 17.4498 79.724C17.6266 78.6164 17.9109 77.5312 18.1056 76.428C18.2019 75.8854 18.2623 75.3383 18.3586 74.7979C18.4593 74.2329 18.6451 73.6903 18.7391 73.1208C18.9137 72.0737 19.0794 71.0333 19.3144 69.9952C19.3659 69.7709 19.4129 69.5445 19.4577 69.3203C19.724 69.1656 19.9524 68.8315 20.1135 68.6207C20.4739 68.1543 20.8388 67.67 21.0671 67.1207C21.2887 66.587 21.5349 66.0646 21.7051 65.5108C21.8931 64.8987 21.9401 64.2193 21.9826 63.5825C22.0722 62.2843 21.8416 61.0107 21.5215 59.7573C21.3626 59.1407 21.1611 58.5353 20.9238 57.9456C20.7 57.3873 20.3821 56.8761 20.1359 56.3268C19.8874 55.7707 19.5629 55.2236 19.2293 54.7146C19.1174 54.5442 19.0033 54.3805 18.8891 54.2191C18.8063 54.1025 18.7279 53.9859 18.6496 53.8693C18.4974 53.6384 18.3519 53.403 18.231 53.1406C18.1705 53.0083 18.1146 52.8738 18.0631 52.737C18.0452 52.6922 18.0295 52.6451 18.0139 52.6003C17.987 52.524 17.9601 52.4455 17.9355 52.3671C18.0698 51.6966 18.1996 51.0262 18.3093 50.3491C18.3138 50.3267 18.3161 50.3065 18.3205 50.2841C18.4056 49.7684 18.4951 49.2504 18.5779 48.7302C18.5891 48.6674 18.5981 48.6047 18.6093 48.5419C18.6294 48.4096 18.6496 48.2751 18.6697 48.1428C18.6787 48.0755 18.6899 48.0082 18.6988 47.9387C18.719 47.7997 18.7346 47.6629 18.7525 47.5239C18.7593 47.4611 18.7682 47.4006 18.7749 47.3378C18.7928 47.1898 18.804 47.0419 18.8197 46.8939C18.8242 46.8423 18.8309 46.7885 18.8354 46.7369C18.8488 46.5732 18.8578 46.4118 18.8645 46.2481C18.8645 46.21 18.8689 46.1719 18.8712 46.1338C18.8801 45.932 18.8824 45.7302 18.8801 45.5284C18.8801 45.284 18.8801 45.0194 18.8779 44.7593C18.8779 44.7593 18.8779 44.7593 18.8779 44.7616C18.8734 44.4902 18.86 44.2212 18.8242 43.9678C18.7996 43.8131 18.7794 43.6651 18.7593 43.5171C18.7078 42.7503 18.6563 41.9812 18.6003 41.2144C18.7033 40.544 18.8242 39.8781 18.9316 39.2076C18.9383 39.165 18.9451 39.1247 18.9518 39.0821C18.9742 38.9408 18.9943 38.7973 19.0167 38.6561C19.0256 38.5955 19.0346 38.535 19.0435 38.4722C19.0704 38.2816 19.095 38.0888 19.1152 37.8982C19.2875 36.2995 19.2137 34.7322 18.9249 33.1492C18.8936 32.9699 18.86 32.7883 18.8242 32.6089C18.813 32.5483 18.7996 32.4856 18.7884 32.425C18.766 32.3152 18.7458 32.2053 18.7234 32.0954C18.6966 31.9631 18.6675 31.8308 18.6384 31.7008C18.6294 31.6627 18.6227 31.6246 18.6138 31.5864C18.5779 31.4295 18.5421 31.2725 18.5041 31.1156C18.5018 31.1044 18.4974 31.0909 18.4951 31.0797C18.4548 30.9115 18.4101 30.7456 18.3653 30.5797C18.3653 30.5797 18.3653 30.5775 18.3653 30.5752C18.1907 29.9429 17.9825 29.3241 17.7117 28.7389C17.208 27.6492 17.1834 27.5684 16.8566 26.9339C16.6394 26.5124 16.2567 26.111 16.0776 25.6603C15.9925 25.3711 15.9052 25.0639 15.8224 24.75C15.7866 24.6132 15.753 24.4765 15.7217 24.3397C15.715 24.3128 15.7083 24.2859 15.7038 24.2612C15.6881 24.1917 15.6724 24.1199 15.659 24.0504C15.65 24.0056 15.6411 23.9585 15.6321 23.9137C15.621 23.8509 15.6075 23.7881 15.5986 23.7253C15.5807 23.6244 15.5672 23.5235 15.5538 23.4226C15.5493 23.3823 15.5448 23.3419 15.5404 23.3015C15.5314 23.2231 15.5247 23.1468 15.5202 23.0706C15.518 23.0325 15.5157 22.9966 15.5135 22.9607C15.509 22.8509 15.5046 22.741 15.5068 22.6334V22.6244C15.5269 22.6199 15.5471 22.6065 15.5538 22.5908C15.6075 22.4899 15.6254 22.4159 15.6523 22.2993C15.7082 22.0437 15.8829 21.7791 16.0328 21.5683C16.2007 21.3329 16.4178 21.1356 16.6417 20.9428C16.926 20.8105 17.2349 20.7118 17.5236 20.5975C18.2064 20.3262 18.9115 20.084 19.5517 19.7208C20.5836 19.1356 21.676 18.4786 22.5288 17.6176C22.5378 17.6804 22.5467 17.7432 22.5534 17.8104C22.6139 18.371 22.3251 19.3149 21.5708 19.0683C21.5439 19.0593 21.5081 19.093 21.526 19.1199C21.8013 19.5414 22.2244 19.5055 22.5467 19.2723C22.5646 19.362 22.5893 19.4495 22.6228 19.5369C22.6251 19.5436 22.6318 19.5436 22.6363 19.5414C22.7079 19.8374 22.8377 20.1221 22.9205 20.4114C23.0996 21.028 22.8713 21.6917 22.1035 21.5392C22.0834 21.5347 22.0699 21.5594 22.0722 21.5773C22.1326 21.954 22.7818 22.0213 23.066 21.9002C23.1802 21.8508 23.2787 21.7858 23.3682 21.7141C23.4041 21.8239 23.4533 21.9226 23.507 22.0145C23.563 22.1558 23.6301 22.2926 23.6995 22.4204C23.9637 22.8957 24.4069 23.2679 24.8882 23.5101C25.2217 23.6805 25.5082 23.9114 25.788 24.1558C26.2626 24.5706 26.2693 25.9765 25.2687 25.6289C25.2127 25.6088 25.1612 25.685 25.2015 25.7298C25.7365 26.2971 26.3655 25.7814 26.6498 25.2567C26.6946 25.1715 26.7304 25.0818 26.7595 24.9922C26.764 24.9922 26.7685 24.9922 26.7707 24.9899C26.8289 24.9092 26.8535 24.8218 26.8602 24.7276C26.9811 24.5863 27.0729 24.4092 27.1311 24.2365C27.1288 24.2455 27.1266 24.2567 27.1244 24.2657C27.1221 24.2724 27.1311 24.2724 27.1333 24.2657C27.1803 24.1693 27.2139 24.0729 27.2408 23.9764C27.337 23.9338 27.4333 23.8778 27.5071 23.8419C27.8877 23.6513 28.116 23.2948 28.2481 22.9047C28.3309 22.658 28.3264 22.389 28.2772 22.1222C28.2794 22.1222 28.2816 22.1222 28.2861 22.1222C28.2906 22.1603 28.3018 22.1961 28.304 22.2365C28.304 22.25 28.3242 22.2432 28.3242 22.2343C28.3242 22.1984 28.3197 22.167 28.3197 22.1334C28.4294 22.1625 28.5435 22.1715 28.6622 22.1468C28.7383 22.1311 28.8122 22.1065 28.8793 22.0751C28.895 22.0683 28.9062 22.0571 28.9218 22.0504C28.9733 22.0235 29.0248 21.9966 29.0696 21.963C29.0853 21.9517 29.0987 21.9361 29.1143 21.9226C29.1546 21.889 29.1949 21.8576 29.2285 21.8195C29.2464 21.7993 29.2598 21.7769 29.2778 21.7567C29.3069 21.7208 29.336 21.6872 29.3606 21.649C29.3785 21.6199 29.3942 21.5885 29.4098 21.5594C29.4277 21.5257 29.4479 21.4943 29.4636 21.4585C29.4815 21.4203 29.4926 21.38 29.5083 21.3396C29.5173 21.3105 29.5307 21.2836 29.5397 21.2544C29.5531 21.2096 29.562 21.1647 29.571 21.1199C29.5755 21.093 29.5844 21.0683 29.5867 21.0437C29.5934 20.9988 29.5956 20.9562 29.6001 20.9114C29.6001 20.8867 29.6068 20.862 29.6068 20.8374C29.6068 20.8396 29.6068 20.8419 29.6068 20.8463C29.6068 20.8351 29.6091 20.8239 29.6091 20.8127C29.6091 20.7701 29.562 20.7746 29.5419 20.797C29.3986 20.9428 29.3785 21.1715 29.1614 21.2477C28.7025 21.4047 28.2794 20.9495 28.2906 20.5436C28.304 20.0302 28.6062 19.6154 28.9689 19.2723C29.0382 19.2073 29.1099 19.1445 29.1815 19.0817C29.1949 19.0705 29.2084 19.0593 29.2218 19.0481C29.2934 18.9876 29.3651 18.9293 29.4367 18.8732C29.8598 18.5391 30.2895 18.2364 30.6656 17.8418C31.0193 17.4719 31.1715 16.9786 31.3394 16.51C31.6751 15.5794 31.5364 14.5166 30.9745 13.7095L30.9566 13.696ZM18.8398 115.982C18.8578 116.812 18.6966 117.68 18.5421 118.494C18.2422 120.079 18.0071 121.781 17.114 123.151C17.0513 123.22 16.9797 123.285 16.9036 123.348C16.879 123.368 16.8521 123.386 16.8252 123.406C16.8185 123.305 16.814 123.205 16.8073 123.104C16.8185 123.133 16.8275 123.164 16.8409 123.193C16.6439 119.848 16.8812 115.509 17.217 112.045C17.264 112.11 17.3087 112.173 17.358 112.236C17.405 112.299 17.4542 112.361 17.5035 112.424C17.5035 112.424 17.5057 112.429 17.508 112.431C17.705 112.682 17.9042 112.926 18.0765 113.198C18.2668 113.494 18.4996 113.799 18.6854 114.121C18.7637 114.366 18.8264 114.606 18.8421 114.886C18.8622 115.252 18.8287 115.619 18.8376 115.985L18.8398 115.982ZM9.17868 89.6569C9.15181 89.6166 9.13167 89.574 9.10928 89.5359C9.15853 88.852 9.28389 88.1861 9.44729 87.5268C9.47415 87.7914 9.50101 88.0582 9.52116 88.3251C9.57712 89.0336 9.64651 89.7354 9.7271 90.4372C9.59279 90.2578 9.46072 90.0785 9.33313 89.8924C9.28164 89.8139 9.22793 89.7376 9.17644 89.6592L9.17868 89.6569ZM4.84056 9.20041C4.84056 9.20041 4.85399 9.1892 4.85399 9.18023C4.84727 9.13539 4.84727 9.0883 4.84279 9.04346V9.01431C4.88756 9.26095 4.95471 9.50086 5.03978 9.73181C5.04649 9.89549 5.05768 10.0592 5.07335 10.2206C5.06216 10.2924 5.04873 10.3641 5.04202 10.4381C5.04202 10.4628 5.03977 10.4874 5.03754 10.5143C4.89204 10.1018 4.84056 9.63764 4.84056 9.20041ZM18.6652 39.961C18.6294 40.2121 18.5959 40.461 18.5623 40.7122C18.5891 40.461 18.6205 40.2121 18.6652 39.961Z" fill="#FAE2FF"/>
</svg>
